<svg width="40" height="40" viewBox="0 0 40 40" fill="none" xmlns="http://www.w3.org/2000/svg">
<path fill-rule="evenodd" clip-rule="evenodd" d="M26.289 4.11101C28.7635 4.38447 31.315 5.28576 32.5737 7.98573C32.7783 8.42452 32.8661 8.89516 32.9222 9.26888C32.9467 9.43253 32.9649 9.57143 32.9813 9.69654C33.0083 9.90265 33.0304 10.0713 33.068 10.2516C33.1396 10.5944 33.2215 10.9242 33.3085 11.2742C33.3436 11.4155 33.3795 11.56 33.4159 11.71C33.5383 12.2148 33.6591 12.7563 33.7308 13.3246C33.8916 14.5989 33.9858 15.8102 33.9858 17.1137C33.9858 17.4757 33.9893 17.8435 33.9928 18.2159C34.0101 20.0549 34.0285 22.0065 33.6361 23.9336C33.3944 25.1203 32.9539 26.079 32.517 27.0301C32.485 27.0997 32.453 27.1692 32.4212 27.2388C32.2289 27.6589 32.0727 28.0946 31.8997 28.5774C31.8405 28.7424 31.7794 28.9128 31.7143 29.09C31.4708 29.7518 31.179 30.4792 30.7498 31.1409C30.1786 32.0214 29.3199 32.852 28.3781 33.5057C27.4373 34.1588 26.3456 34.6825 25.2759 34.8837C24.6409 35.0032 23.9771 35.0097 23.3785 34.9936C23.1117 34.9864 22.8713 34.9757 22.6438 34.9656C22.3166 34.951 22.0162 34.9377 21.7029 34.9377C21.2465 34.9377 20.7453 34.9455 20.2111 34.9538C17.9946 34.9882 15.21 35.0314 12.7014 34.5642C9.57437 33.9818 6.48804 32.5339 5.46252 28.9447C4.97131 27.2255 4.98964 25.4282 5.00608 23.8169C5.00896 23.534 5.01179 23.2568 5.01179 22.9868C5.01179 21.0905 5.0995 19.2512 5.31072 17.354C5.33159 17.1665 5.3398 16.9101 5.34719 16.5686C5.34797 16.533 5.34873 16.4966 5.3495 16.4596C5.35577 16.1602 5.36295 15.8175 5.38344 15.4769C5.40644 15.0946 5.44786 14.6805 5.53398 14.2882C5.54153 14.2539 5.54954 14.2191 5.55806 14.184C5.45375 13.8733 5.50841 13.5372 5.68787 13.2799C5.72305 13.109 5.76327 12.8687 5.80435 12.5912C5.90195 11.9318 5.9868 11.1852 6.0047 11.008C6.17501 9.32065 7.15116 7.57724 8.05267 6.3898C8.46838 5.84224 9.07863 5.42064 9.67516 5.13824C10.274 4.85473 10.9657 4.66099 11.6059 4.66099C12.8291 4.66099 14.0604 4.54479 15.3453 4.42076L15.4253 4.41304C16.6704 4.2928 17.967 4.16759 19.273 4.15919C19.8876 4.15523 20.5451 4.12331 21.2578 4.08872C21.6708 4.06867 22.1023 4.04772 22.5547 4.0308C23.7536 3.98595 25.0429 3.9733 26.289 4.11101ZM7.70355 13.2393C7.86587 13.5647 7.84719 13.9688 7.6215 14.2841C7.58163 14.3398 7.51775 14.4717 7.46209 14.7253C7.40842 14.9697 7.37537 15.2652 7.35526 15.5994C7.33732 15.8974 7.33097 16.1988 7.32456 16.5027C7.32379 16.5394 7.32301 16.576 7.32222 16.6128C7.31522 16.9361 7.30642 17.2857 7.2737 17.5796C7.07191 19.3921 6.98729 21.1554 6.98729 22.9868C6.98729 23.2961 6.98477 23.5991 6.98229 23.8968C6.9688 25.5161 6.95665 26.9745 7.35969 28.3851C8.0695 30.8693 10.1914 32.056 13.0576 32.5898C15.3528 33.0173 17.8766 32.9797 20.0853 32.9468C20.6479 32.9385 21.1902 32.9304 21.7029 32.9304C22.0434 32.9304 22.4348 32.9472 22.8058 32.9632C23.0264 32.9727 23.2397 32.9818 23.4308 32.987C23.9953 33.0021 24.491 32.99 24.9162 32.91C25.6451 32.7728 26.4825 32.3906 27.2638 31.8483C28.0442 31.3065 28.7007 30.6522 29.1003 30.0362C29.4001 29.574 29.629 29.0256 29.8638 28.3872C29.9151 28.2479 29.9674 28.1017 30.0213 27.9512C30.2012 27.4489 30.3983 26.8984 30.6299 26.3923C30.6554 26.3367 30.6805 26.2819 30.7054 26.2277C31.1596 25.2369 31.5081 24.4767 31.7015 23.5269C32.0471 21.8299 32.0326 20.1333 32.017 18.2997C32.0137 17.9109 32.0103 17.516 32.0103 17.1137C32.0103 15.9134 31.924 14.7893 31.7714 13.5798C31.7143 13.1278 31.6154 12.6754 31.4977 12.1902C31.4673 12.0647 31.435 11.9346 31.4019 11.8015C31.3116 11.438 31.2155 11.0512 31.1355 10.6681C31.083 10.4166 31.0426 10.1128 31.0088 9.85828C30.9946 9.75154 30.9815 9.65346 30.9692 9.57154C30.9187 9.23472 30.8636 9.00643 30.7884 8.84502C29.97 7.08954 28.2953 6.35186 26.0754 6.10654C24.9744 5.98487 23.7995 5.99289 22.6274 6.03673C22.2271 6.0517 21.8192 6.07139 21.4149 6.0909C20.6696 6.12687 19.9364 6.16226 19.2855 6.16644C18.0678 6.17427 16.8462 6.29221 15.5741 6.415L15.5321 6.41906C14.2603 6.54183 12.9374 6.66829 11.6059 6.66829C11.3262 6.66829 10.9216 6.76265 10.5095 6.95775C10.095 7.15395 9.77962 7.40144 9.61683 7.61587C8.80779 8.6815 8.08546 10.0677 7.96989 11.2128C7.94939 11.4158 7.86084 12.1941 7.75787 12.8897C7.74062 13.0063 7.72244 13.1242 7.70355 13.2393Z" fill="black"/>
<path fill-rule="evenodd" clip-rule="evenodd" d="M14.3139 15.946C15.7425 14.3492 17.6216 13.3593 19.828 13.3593C20.3194 13.3593 20.7269 13.7238 20.803 14.2012C21.0143 14.2859 21.2195 14.3839 21.4172 14.4925C22.6159 15.1507 23.6248 16.2336 24.2785 17.3407C25.6624 19.6844 25.6406 22.4098 24.4715 24.4214C23.2741 26.4814 20.935 27.6804 18.0199 27.0141C16.7126 26.7154 15.2595 26.0859 14.1085 25.1167C12.95 24.1412 12.0306 22.7561 12.0175 20.9871C12.0023 18.9244 13.2181 17.1707 14.3139 15.946ZM17.2227 16.0847C16.7014 16.3953 16.2178 16.802 15.7756 17.2962C14.7549 18.4371 13.9836 19.702 13.993 20.972C14.0004 21.9766 14.5102 22.848 15.3691 23.5712C16.2355 24.3007 17.3877 24.8122 18.4534 25.0558C20.5526 25.5355 22.0196 24.6925 22.7705 23.4006C23.5495 22.0602 23.618 20.1237 22.5845 18.3735C22.0806 17.5201 21.3136 16.7173 20.4779 16.2584C19.658 15.8081 18.86 15.7259 18.1296 16.097C17.8321 16.2481 17.4955 16.2324 17.2227 16.0847Z" fill="black"/>
<path fill-rule="evenodd" clip-rule="evenodd" d="M27.018 12.0606C26.9672 11.9441 26.8889 11.8256 26.7704 11.7187C26.4703 11.4482 26.129 11.4503 25.9624 11.4758C25.7859 11.5028 25.6533 11.5719 25.5714 11.6248C25.401 11.735 25.2771 11.887 25.1993 12.0483C25.0163 12.4277 25.088 12.8269 25.2649 13.1086C25.4167 13.3504 25.6297 13.4923 25.7836 13.5757C26.2649 13.8366 26.8632 13.6515 27.12 13.1625C27.3119 12.7967 27.2585 12.3644 27.018 12.0606Z" fill="black"/>
</svg>
