<svg width="40" height="40" viewBox="0 0 40 40" fill="none" xmlns="http://www.w3.org/2000/svg">
<path fill-rule="evenodd" clip-rule="evenodd" d="M6.02082 7.79398C6.47017 7.36808 7.16956 7.3981 7.58295 7.86104C10.8708 11.543 13.8286 15.6036 16.7429 19.6044C17.0116 19.9733 17.28 20.3418 17.5482 20.7094C20.74 25.0835 23.9168 29.3453 27.5181 33.0556C27.9499 33.5004 27.9499 34.2216 27.5181 34.6664C27.0864 35.1112 26.3864 35.1112 25.9547 34.6664C22.2295 30.8286 18.9682 26.4463 15.7808 22.0782C15.5147 21.7135 15.2492 21.349 14.9839 20.9849C12.0569 16.967 9.16469 12.9969 5.95574 9.40338C5.54234 8.94044 5.57148 8.21989 6.02082 7.79398Z" fill="black"/>
<path fill-rule="evenodd" clip-rule="evenodd" d="M11.1766 5.52339C11.5036 5.46705 11.8109 5.54934 11.9706 5.59637C12.5577 5.76919 12.8977 6.39961 12.7299 7.00445C12.7223 7.03192 12.7138 7.05887 12.7044 7.08527C14.3056 9.5351 16.3296 11.7917 18.3681 14.0644C19.1943 14.9855 20.0229 15.9093 20.8267 16.8497C24.3784 21.005 27.9914 25.1 31.6491 29.1619C31.9542 29.5007 32.2509 29.8355 32.544 30.1663C32.9768 30.6547 33.4018 31.1343 33.8347 31.6051C34.197 31.7167 34.4813 32.0145 34.5829 32.3907C34.5966 32.4069 34.6096 32.4221 34.6213 32.4356L34.644 32.4618L34.6568 32.4768C34.6595 32.4799 34.6721 32.4947 34.6859 32.5121C34.6902 32.5175 34.6974 32.5267 34.706 32.5383C34.7125 32.547 34.7306 32.5713 34.7516 32.6039C34.7617 32.6195 34.782 32.6518 34.8043 32.6946C34.8148 32.7153 34.838 32.7648 34.8502 32.7938C34.8662 32.8354 34.8992 32.9422 34.9141 33.0078C34.93 33.1143 34.924 33.4017 34.8846 33.5774C34.7766 33.8233 34.4033 34.2082 34.157 34.3222C33.9761 34.3631 33.6801 34.3624 33.5707 34.3411C33.5044 34.3223 33.3971 34.2818 33.3556 34.2625C33.2785 34.2248 33.2232 34.1861 33.2044 34.1727C33.1788 34.1546 33.159 34.1389 33.1476 34.1298C33.125 34.1115 33.1079 34.0961 33.1005 34.0894C33.0845 34.075 33.0721 34.0629 33.0678 34.0588C33.0586 34.0498 33.0491 34.0402 33.0416 34.0325C33.036 34.0268 33.0314 34.0221 33.0289 34.0195C32.2874 33.2555 31.5705 32.4466 30.8739 31.6606C30.5887 31.3387 30.3069 31.0207 30.0282 30.7112C26.3604 26.6382 22.7342 22.5283 19.1673 18.3552C18.4421 17.5067 17.6634 16.6387 16.8662 15.7499C14.683 13.316 12.3605 10.7268 10.6144 7.95918C10.5261 7.81921 10.4295 7.65984 10.353 7.50439C10.3008 7.39845 10.1524 7.09675 10.1585 6.73264C10.1622 6.50836 10.2264 6.19249 10.4677 5.91773C10.7017 5.65129 10.9864 5.55616 11.1766 5.52339Z" fill="black"/>
<path fill-rule="evenodd" clip-rule="evenodd" d="M16.6866 19.9205C17.2934 19.99 17.7307 20.5531 17.6633 21.1784C17.5853 21.9018 17.191 22.3821 16.8825 22.6812C16.7427 22.8167 16.5938 22.9398 16.4828 23.0316C16.4747 23.0383 16.4668 23.0449 16.4591 23.0512C16.3319 23.1565 16.2502 23.2259 16.1849 23.2915C14.9251 24.5561 13.7642 25.9315 12.591 27.3541C12.4131 27.5699 12.2347 27.787 12.0557 28.0049C11.0634 29.2125 10.0495 30.4463 8.97743 31.622C8.70118 31.925 8.35277 32.2069 8.08383 32.4245C8.05012 32.4518 8.01766 32.4781 7.98675 32.5032C7.76897 32.6806 7.60715 32.8192 7.489 32.9375C7.51673 33.155 7.48386 33.3831 7.38145 33.5941C7.30055 33.7608 7.22478 33.9066 7.15453 34.0229C7.12081 34.0788 7.07263 34.1543 7.01216 34.2294C6.98195 34.267 6.93334 34.3237 6.86747 34.3828C6.81293 34.4318 6.68071 34.5432 6.48018 34.613C6.24819 34.6938 5.87052 34.7296 5.50967 34.4862C5.20034 34.2775 5.09039 33.9841 5.05351 33.8626C4.98425 33.6345 5.0006 33.4334 5.00442 33.3864C5.00454 33.3849 5.00465 33.3835 5.00474 33.3823C5.01599 33.2395 5.04794 33.0999 5.06937 33.0132C5.1186 32.8139 5.19368 32.5773 5.26813 32.3744C5.30588 32.2715 5.34842 32.1637 5.39299 32.0646C5.42559 31.9921 5.49831 31.8336 5.60702 31.691C5.91013 31.2936 6.31739 30.959 6.61578 30.716C6.64639 30.6911 6.67613 30.6669 6.70504 30.6434C7.00207 30.402 7.21134 30.2318 7.36587 30.0624C8.39541 28.9332 9.36716 27.7508 10.3604 26.5423C10.5414 26.3221 10.7231 26.101 10.906 25.8792C12.083 24.4518 13.3016 23.0054 14.6418 21.6599C14.793 21.5082 14.9539 21.375 15.0718 21.2773L15.074 21.2756C15.2063 21.166 15.2929 21.0942 15.3673 21.0221C15.4292 20.9621 15.4568 20.926 15.4678 20.909C15.5435 20.2931 16.0855 19.8517 16.6866 19.9205ZM15.4741 20.8973C15.4744 20.8972 15.4736 20.8995 15.4707 20.9044C15.4723 20.8998 15.4738 20.8974 15.4741 20.8973Z" fill="black"/>
<path fill-rule="evenodd" clip-rule="evenodd" d="M34.7299 4.39305C35.1298 4.86842 35.0799 5.58776 34.6185 5.99975C33.5764 6.93021 32.5378 7.86826 31.4976 8.80778C28.3857 11.6185 25.2591 14.4424 21.9808 17.1156C21.9573 17.1347 21.9328 17.1546 21.9075 17.1753C21.7704 17.287 21.6082 17.4192 21.4376 17.5597C21.4372 17.9546 21.2371 18.3383 20.8804 18.5483C20.5563 18.7391 20.2946 18.8841 20.091 18.9846C19.9903 19.0343 19.8862 19.0819 19.7855 19.1194C19.7198 19.1439 19.5259 19.2161 19.2949 19.216C19.1844 19.2159 18.8823 19.2018 18.593 18.9712C18.2328 18.6842 18.1421 18.2739 18.158 17.9861C18.1711 17.749 18.2512 17.5741 18.2856 17.5041C18.3283 17.4174 18.374 17.3486 18.4058 17.3039C18.5181 17.1458 18.672 16.9917 18.7844 16.8833C19.24 16.444 20.0683 15.7694 20.5162 15.4046C20.5491 15.3777 20.58 15.3526 20.6086 15.3293C23.8393 12.695 26.9063 9.92499 30.0072 7.12431C31.0551 6.17779 32.107 5.22777 33.1704 4.27829C33.6318 3.8663 34.33 3.91768 34.7299 4.39305Z" fill="black"/>
</svg>
