<svg width="40" height="40" viewBox="0 0 40 40" fill="none" xmlns="http://www.w3.org/2000/svg">
<path fill-rule="evenodd" clip-rule="evenodd" d="M25.3591 7.28436C27.0176 7.38816 28.5954 7.48691 30.0716 7.51905C30.6326 7.53127 31.077 7.97686 31.0643 8.5143C31.0515 9.05174 30.5864 9.47752 30.0254 9.46531C28.5016 9.43213 26.8686 9.32986 25.2061 9.22574C24.805 9.20063 24.4023 9.1754 23.9989 9.15101C21.9089 9.02466 19.7829 8.91917 17.6957 8.95321C13.5007 9.02163 9.61017 9.65448 6.61063 11.683C5.15529 12.6672 4.45394 14.2926 4.17813 16.2651C3.91335 18.1586 4.06324 20.1991 4.19387 21.9775C4.19956 22.0549 4.20521 22.1317 4.21078 22.2081C4.33686 23.9347 4.62394 25.4433 5.28158 26.6177C5.91168 27.7429 6.90722 28.6088 8.61016 29.0373C14.0795 30.4135 20.2309 30.1094 26.0195 29.7446C26.2632 29.7292 26.5071 29.7137 26.7515 29.6981C28.6975 29.5741 30.6641 29.4487 32.6442 29.411C32.8634 29.4068 33.126 29.4156 33.3744 29.4239C33.4277 29.4257 33.4803 29.4274 33.5317 29.429C33.8425 29.4387 34.1504 29.4448 34.445 29.4323C35.1091 29.4039 35.4093 29.286 35.5009 29.202C35.62 29.0927 35.7636 28.7966 35.8403 28.2151C35.8925 27.8184 35.9 27.4393 35.9073 27.0713C35.9103 26.9205 35.9132 26.7715 35.9192 26.624C36.0571 23.2235 35.8885 19.7889 35.5949 16.3668C35.5752 16.1379 35.5517 15.8592 35.5254 15.5475C35.4331 14.4554 35.3065 12.957 35.1931 11.7674C35.1533 11.3497 35.116 10.9796 35.0831 10.6823C34.9788 10.5295 34.9183 10.3469 34.9183 10.1507C34.9183 10.0163 34.9202 9.90001 34.9253 9.80726C34.9277 9.76234 34.9317 9.70728 34.9394 9.65145C34.9431 9.62383 34.9497 9.58233 34.9612 9.53464C34.9691 9.50182 34.9949 9.3969 35.0611 9.2789L35.0617 9.27781C35.0881 9.2306 35.3685 8.72969 36.0164 8.76332C36.3141 8.77877 36.521 8.91134 36.6269 8.99859C36.7324 9.08547 36.7958 9.17376 36.8268 9.22087C36.922 9.36538 36.9592 9.51118 36.9646 9.53241C36.9648 9.5334 36.965 9.53413 36.9651 9.53456C36.9894 9.62489 37.007 9.72863 37.0197 9.81065C37.0741 10.1616 37.1442 10.8295 37.2167 11.5904C37.3312 12.7913 37.4591 14.3058 37.5514 15.398C37.5775 15.7072 37.6008 15.9825 37.62 16.2073C37.9172 19.6707 38.0919 23.1908 37.9497 26.6996C37.9463 26.7831 37.9442 26.8887 37.9418 27.0102C37.9342 27.3986 37.9234 27.9492 37.8563 28.4589C37.771 29.1058 37.5666 30.0023 36.9062 30.6081C36.2225 31.2352 35.2157 31.348 34.5354 31.3771C34.1578 31.3932 33.784 31.3847 33.4656 31.3747C33.4 31.3727 33.3379 31.3707 33.2789 31.3687C33.0337 31.3606 32.8428 31.3544 32.6846 31.3574C30.755 31.3941 28.8377 31.5163 26.886 31.6406C26.6422 31.6561 26.3979 31.6717 26.1529 31.6872C20.4086 32.0492 13.9317 32.3891 8.09401 30.9202C5.83676 30.3523 4.38381 29.1324 3.49101 27.5381C2.62574 25.9929 2.31551 24.1484 2.18374 22.344C2.17704 22.2522 2.17015 22.1588 2.16316 22.064C2.03478 20.3248 1.87085 18.1039 2.16413 16.0066C2.47386 13.7915 3.31797 11.5268 5.43881 10.0926C8.94201 7.72344 13.3343 7.0773 17.6611 7.00673C19.8347 6.97128 22.0292 7.0813 24.1269 7.20812C24.5423 7.23324 24.9531 7.25895 25.3591 7.28436Z" fill="black"/>
<path fill-rule="evenodd" clip-rule="evenodd" d="M19.0606 14.5062C18.9433 14.37 18.786 14.2626 18.5983 14.2027C18.4053 14.141 18.2131 14.0813 18.0822 14.0573C18.0583 14.0529 18.0182 14.0462 17.9697 14.0419C17.9387 14.0392 17.8204 14.0287 17.6759 14.0553C17.6236 14.0649 17.0346 14.1795 16.8817 14.7603C16.8029 14.8796 16.7462 14.9996 16.7043 15.104C16.5884 15.3925 16.5191 15.7318 16.4725 16.0579C16.3777 16.7226 16.3476 17.5618 16.3434 18.3762C16.3392 19.1991 16.3615 20.0381 16.3799 20.7117C16.3982 21.3802 16.4091 21.8118 16.401 21.9792C16.3997 21.986 16.3982 21.9936 16.3966 22.0021C16.3947 22.0118 16.3926 22.0228 16.3902 22.0354C16.3771 22.1036 16.359 22.1996 16.3398 22.3119C16.3022 22.5324 16.2575 22.8342 16.2398 23.1355C16.2243 23.3968 16.2168 23.8089 16.3494 24.1671C16.4182 24.353 16.5778 24.6695 16.946 24.864C17.3523 25.0785 17.7628 25.0178 18.0389 24.912C18.9172 24.5754 19.6694 23.9533 20.2823 23.4046C20.4659 23.2403 20.6364 23.0835 20.798 22.9349C21.226 22.5413 21.5918 22.2049 21.9732 21.9378C22.9573 21.2488 23.9983 20.7434 25.1749 20.1798C25.3973 20.0733 25.7016 19.882 25.8791 19.539C26.0848 19.1413 26.019 18.7455 25.8767 18.4631C25.7517 18.2152 25.5636 18.0359 25.4256 17.9218C25.2767 17.7988 25.1126 17.6923 24.9606 17.6035C24.6572 17.4261 24.3166 17.2696 24.0516 17.1529C23.9637 17.1142 23.8751 17.0759 23.799 17.0431C23.7617 17.027 23.7274 17.0122 23.6978 16.9993C23.6494 16.9783 23.6111 16.9614 23.5808 16.9476C23.553 16.9349 23.5407 16.9288 23.5385 16.9277C23.5383 16.9275 23.5381 16.9275 23.5385 16.9277C22.9794 16.6319 22.3967 16.308 21.8031 15.9779C20.9006 15.4761 19.9722 14.9599 19.0606 14.5062ZM18.4738 16.4104C18.4065 16.9346 18.3793 17.6321 18.3754 18.3858C18.3713 19.1743 18.3927 19.9847 18.4112 20.6607C18.4124 20.7055 18.4137 20.7502 18.4149 20.7947C18.431 21.3762 18.4459 21.9163 18.4241 22.1712C18.4203 22.2157 18.4135 22.2547 18.4123 22.2617C18.4098 22.2762 18.407 22.2917 18.4048 22.3033C18.4018 22.3193 18.3979 22.3399 18.3938 22.3609C18.3921 22.3697 18.3904 22.3786 18.3887 22.3873C18.3867 22.3979 18.3846 22.409 18.3824 22.4206C18.5465 22.2883 18.7168 22.1417 18.8951 21.9821C19.0249 21.866 19.1618 21.7399 19.3038 21.6092C19.7614 21.1879 20.2728 20.7172 20.7743 20.366C21.5809 19.8013 22.4113 19.35 23.2388 18.9376C23.2268 18.9323 23.2148 18.9269 23.2028 18.9217C23.15 18.8984 23.0901 18.8726 23.028 18.8458C22.8541 18.7707 22.6621 18.6879 22.5561 18.6318C21.9071 18.2885 21.297 17.9486 20.6982 17.615C19.9572 17.2021 19.2333 16.7988 18.4738 16.4104Z" fill="black"/>
</svg>
