<svg width="38" height="68" viewBox="0 0 38 68" fill="none" xmlns="http://www.w3.org/2000/svg">
<path d="M6.47461 36.4751L6.3441 36.5987C4.97017 37.8401 2.849 37.7993 1.52487 36.4751C0.200733 35.151 0.159861 33.0298 1.40126 31.6559L1.52487 31.5254L31.5251 1.52513C32.8919 0.158291 35.108 0.158291 36.4749 1.52513C37.8417 2.89196 37.8417 5.10804 36.4749 6.47487L6.47461 36.4751Z" fill="black"/>
<path d="M1.52487 36.4751L1.40127 36.3441C0.159871 34.9702 0.200733 32.8495 1.52487 31.5254C2.849 30.2012 4.97018 30.1599 6.34411 31.4013L6.47462 31.5249L36.4749 61.5251C37.8417 62.892 37.8417 65.1081 36.4749 66.4749C35.108 67.8417 32.892 67.8417 31.5251 66.4749L1.52487 36.4751Z" fill="black"/>
</svg>
