<svg width="68" height="68" viewBox="0 0 68 68" fill="none" xmlns="http://www.w3.org/2000/svg">
<path d="M64 60.5L64.1797 60.5049C66.0292 60.5984 67.5 62.1273 67.5 64C67.5 65.8727 66.0292 67.4016 64.1797 67.4951L64 67.5H4C2.067 67.5 0.5 65.933 0.5 64C0.5 62.067 2.067 60.5 4 60.5H64ZM64 30.5L64.1797 30.5049C66.0292 30.5984 67.5 32.1273 67.5 34C67.5 35.8727 66.0292 37.4016 64.1797 37.4951L64 37.5H4C2.067 37.5 0.5 35.933 0.5 34C0.5 32.067 2.067 30.5 4 30.5H64ZM64 0.5L64.1797 0.504883C66.0292 0.598423 67.5 2.12727 67.5 4C67.5 5.87273 66.0292 7.40158 64.1797 7.49512L64 7.5H4C2.067 7.5 0.5 5.933 0.5 4C0.5 2.067 2.067 0.5 4 0.5H64Z" fill="black"/>
</svg>
