<svg width="530" height="76" viewBox="0 0 530 76" fill="none" xmlns="http://www.w3.org/2000/svg">
<path d="M0 1.05555H14.5991L25.9188 45.2833H26.1304V1.05555H36.4979V74.9444H24.5435L10.5791 21.0056H10.3675V74.9444H0V1.05555Z" fill="#F2F2F2"/>
<path d="M58.7941 76C53.0814 76 48.7087 74.3815 45.6761 71.1444C42.6434 67.9074 41.127 63.3333 41.127 57.4222V18.5778C41.127 12.6667 42.6434 8.09259 45.6761 4.85556C48.7087 1.61852 53.0814 0 58.7941 0C64.5068 0 68.8795 1.61852 71.9122 4.85556C74.9449 8.09259 76.4612 12.6667 76.4612 18.5778V57.4222C76.4612 63.3333 74.9449 67.9074 71.9122 71.1444C68.8795 74.3815 64.5068 76 58.7941 76ZM58.7941 65.4444C62.8142 65.4444 64.8242 63.0167 64.8242 58.1611V17.8389C64.8242 12.9833 62.8142 10.5556 58.7941 10.5556C54.7741 10.5556 52.764 12.9833 52.764 17.8389V58.1611C52.764 63.0167 54.7741 65.4444 58.7941 65.4444Z" fill="#F2F2F2"/>
<path d="M81.1573 1.05555H98.7186C104.713 1.05555 109.086 2.46296 111.837 5.27778C114.587 8.02222 115.963 12.2796 115.963 18.05V21.0056C115.963 24.8056 115.328 27.9019 114.058 30.2944C112.859 32.687 110.99 34.4111 108.451 35.4667V35.6778C114.235 37.6482 117.126 42.7852 117.126 51.0889V57.4222C117.126 63.1222 115.61 67.4852 112.577 70.5111C109.615 73.4667 105.242 74.9444 99.4592 74.9444H81.1573V1.05555ZM97.3433 31.1389C99.6707 31.1389 101.399 30.5407 102.527 29.3444C103.726 28.1482 104.326 26.1426 104.326 23.3278V19.2111C104.326 16.537 103.832 14.6019 102.844 13.4056C101.928 12.2093 100.447 11.6111 98.4012 11.6111H92.7943V31.1389H97.3433ZM99.4592 64.3889C101.504 64.3889 103.021 63.8611 104.008 62.8056C104.996 61.6796 105.489 59.7796 105.489 57.1056V50.6667C105.489 47.2889 104.89 44.9667 103.691 43.7C102.562 42.363 100.658 41.6944 97.9781 41.6944H92.7943V64.3889H99.4592Z" fill="#F2F2F2"/>
<path d="M137.575 76C131.863 76 127.49 74.3815 124.457 71.1444C121.425 67.9074 119.908 63.3333 119.908 57.4222V18.5778C119.908 12.6667 121.425 8.09259 124.457 4.85556C127.49 1.61852 131.863 0 137.575 0C143.288 0 147.661 1.61852 150.693 4.85556C153.726 8.09259 155.242 12.6667 155.242 18.5778V57.4222C155.242 63.3333 153.726 67.9074 150.693 71.1444C147.661 74.3815 143.288 76 137.575 76ZM137.575 65.4444C141.595 65.4444 143.605 63.0167 143.605 58.1611V17.8389C143.605 12.9833 141.595 10.5556 137.575 10.5556C133.555 10.5556 131.545 12.9833 131.545 17.8389V58.1611C131.545 63.0167 133.555 65.4444 137.575 65.4444Z" fill="#F2F2F2"/>
<path d="M159.938 1.05555H177.711C183.495 1.05555 187.832 2.6037 190.724 5.7C193.615 8.7963 195.061 13.3352 195.061 19.3167V56.6833C195.061 62.6648 193.615 67.2037 190.724 70.3C187.832 73.3963 183.495 74.9444 177.711 74.9444H159.938V1.05555ZM177.5 64.3889C179.404 64.3889 180.85 63.8259 181.837 62.7C182.895 61.5741 183.424 59.7444 183.424 57.2111V18.7889C183.424 16.2556 182.895 14.4259 181.837 13.3C180.85 12.1741 179.404 11.6111 177.5 11.6111H171.575V64.3889H177.5Z" fill="#F2F2F2"/>
<path d="M208.568 43.4889L194.497 1.05555H206.875L214.809 28.1833H215.021L222.955 1.05555H234.275L220.205 43.4889V74.9444H208.568V43.4889Z" fill="#F2F2F2"/>
<path d="M250.113 1.05555H261.75V64.3889H280.898V74.9444H250.113V1.05555Z" fill="#F2F2F2"/>
<path d="M299.712 76C294 76 289.627 74.3815 286.594 71.1444C283.562 67.9074 282.045 63.3333 282.045 57.4222V18.5778C282.045 12.6667 283.562 8.09259 286.594 4.85556C289.627 1.61852 294 0 299.712 0C305.425 0 309.798 1.61852 312.83 4.85556C315.863 8.09259 317.379 12.6667 317.379 18.5778V57.4222C317.379 63.3333 315.863 67.9074 312.83 71.1444C309.798 74.3815 305.425 76 299.712 76ZM299.712 65.4444C303.732 65.4444 305.742 63.0167 305.742 58.1611V17.8389C305.742 12.9833 303.732 10.5556 299.712 10.5556C295.692 10.5556 293.682 12.9833 293.682 17.8389V58.1611C293.682 63.0167 295.692 65.4444 299.712 65.4444Z" fill="#F2F2F2"/>
<path d="M318.801 1.05555H330.544L338.161 58.3722H338.372L345.989 1.05555H356.674L345.46 74.9444H330.015L318.801 1.05555Z" fill="#F2F2F2"/>
<path d="M359.09 1.05555H390.827V11.6111H370.727V31.1389H386.701V41.6944H370.727V64.3889H390.827V74.9444H359.09V1.05555Z" fill="#F2F2F2"/>
<path d="M409.683 76C404.041 76 399.774 74.4167 396.882 71.25C393.99 68.013 392.545 63.4037 392.545 57.4222V53.2H403.547V58.2667C403.547 63.0519 405.557 65.4444 409.577 65.4444C411.552 65.4444 413.033 64.8815 414.02 63.7556C415.078 62.5593 415.607 60.6593 415.607 58.0556C415.607 54.9593 414.902 52.25 413.491 49.9278C412.081 47.5352 409.471 44.6852 405.663 41.3778C400.867 37.1556 397.517 33.3556 395.613 29.9778C393.708 26.5296 392.756 22.6593 392.756 18.3667C392.756 12.5259 394.237 8.02222 397.199 4.85556C400.162 1.61852 404.464 0 410.106 0C415.678 0 419.874 1.61852 422.695 4.85556C425.587 8.02222 427.032 12.5963 427.032 18.5778V21.6389H416.03V17.8389C416.03 15.3056 415.536 13.4759 414.549 12.35C413.562 11.1537 412.116 10.5556 410.212 10.5556C406.333 10.5556 404.393 12.913 404.393 17.6278C404.393 20.3019 405.098 22.8 406.509 25.1222C407.99 27.4444 410.635 30.2593 414.443 33.5667C419.31 37.7889 422.66 41.6241 424.493 45.0722C426.327 48.5204 427.244 52.5667 427.244 57.2111C427.244 63.263 425.728 67.9074 422.695 71.1444C419.733 74.3815 415.395 76 409.683 76Z" fill="#F2F2F2"/>
<path d="M444.512 1.05555H461.121L468.526 53.9389H468.738L476.143 1.05555H492.753V74.9444H481.75V19H481.539L473.075 74.9444H463.343L454.879 19H454.668V74.9444H444.512V1.05555Z" fill="#F2F2F2"/>
<path d="M498.263 1.05555H530V11.6111H509.9V31.1389H525.874V41.6944H509.9V64.3889H530V74.9444H498.263V1.05555Z" fill="#F2F2F2"/>
</svg>
