<svg width="30" height="35" viewBox="0 0 30 35" fill="none" xmlns="http://www.w3.org/2000/svg">
<path d="M25.0354 23.8246C25.6937 22.9881 25.6376 21.1569 24.3214 20.5105C23.3145 20.0803 22.1774 20.2487 21.6461 20.619C20.7908 21.061 19.967 22.4747 19.967 23.9062L22.9205 23.903L22.9196 26.7208L16.7899 26.718C16.8701 28.1674 17.7951 29.3283 19.5164 29.9747C19.2948 30.5855 18.2568 31.8304 16.8312 31.7461C16.5498 33.0635 16.2823 33.803 15.0006 35C13.718 33.8034 13.4505 33.0635 13.1691 31.7461C11.7436 31.8304 10.7055 30.5855 10.4839 29.9747C12.2052 29.3283 13.1302 28.1674 13.2105 26.718L7.08028 26.7208V23.903L10.0329 23.9062C10.0329 22.4747 9.21038 21.061 8.35424 20.619C7.82294 20.249 6.68621 20.0807 5.67973 20.5105C4.36276 21.1569 4.30623 22.9885 4.96451 23.8246C-1.25457 22.838 -0.637659 17.7063 1.48098 15.8433C3.19325 14.3383 5.05996 14.1031 6.49941 14.5777C9.77076 15.5797 11.9709 18.9187 12.0778 23.9062H13.7885C13.7885 19.3723 12.8651 17.9268 10.4594 12.2324C9.24765 9.54125 9.97558 6.21419 12.1417 3.15067C12.9176 2.05273 13.8868 1.06154 15.0006 0C16.1136 1.06154 17.0827 2.05273 17.8586 3.15067C20.0247 6.21419 20.7527 9.54125 19.5418 12.2324C17.1348 17.9268 16.2115 19.372 16.2115 23.9062H17.9221C18.029 18.9187 20.23 15.5797 23.5005 14.5777C24.94 14.1035 26.8079 14.3383 28.5193 15.8433C30.6376 17.7063 31.2545 22.838 25.0354 23.8246Z" fill="#E1A953"/>
</svg>
