<svg width="52" height="48" viewBox="0 0 52 48" fill="none" xmlns="http://www.w3.org/2000/svg">
<path fill-rule="evenodd" clip-rule="evenodd" d="M14.1707 26.7894C15.9113 27.4126 16.8183 29.3323 16.1967 31.0772L14.4248 36.0508C13.8032 37.7956 11.8882 38.705 10.1477 38.0818C8.40711 37.4586 7.50004 35.5389 8.12167 33.7941L9.89356 28.8205C10.5152 27.0756 12.4301 26.1663 14.1707 26.7894Z" fill="#FE621D"/>
<path fill-rule="evenodd" clip-rule="evenodd" d="M15.4451 28.3461C15.4677 29.486 14.5642 30.4285 13.427 30.4511L6.35293 30.5919C5.21578 30.6145 4.27563 29.7087 4.25306 28.5687C4.23049 27.4288 5.13404 26.4863 6.2712 26.4637L13.3453 26.3229C14.4824 26.3003 15.4226 27.2061 15.4451 28.3461Z" fill="#FE621D"/>
<path fill-rule="evenodd" clip-rule="evenodd" d="M21.0561 35.4878C20.2719 36.3137 18.9684 36.3459 18.1445 35.5598L12.3412 30.0224C11.5173 29.2363 11.4852 27.9295 12.2693 27.1036C13.0535 26.2777 14.357 26.2455 15.1809 27.0316L20.9842 32.569C21.808 33.3551 21.8402 34.6619 21.0561 35.4878Z" fill="#FE621D"/>
<path fill-rule="evenodd" clip-rule="evenodd" d="M25.2277 34.0644C25.2277 35.2046 24.3057 36.1289 23.1683 36.1289H19.5644C18.427 36.1289 17.505 35.2046 17.505 34.0644C17.505 32.9242 18.427 31.9999 19.5644 31.9999H23.1683C24.3057 31.9999 25.2277 32.9242 25.2277 34.0644Z" fill="#FE621D"/>
<path fill-rule="evenodd" clip-rule="evenodd" d="M1.31194 33.5402C0.507695 32.7339 0.507695 31.4268 1.31194 30.6205L4.85573 27.068C5.65997 26.2617 6.96392 26.2617 7.76817 27.068C8.57241 27.8742 8.57241 29.1814 7.76817 29.9876L4.22438 33.5402C3.42013 34.3464 2.11619 34.3464 1.31194 33.5402Z" fill="#FE621D"/>
<path fill-rule="evenodd" clip-rule="evenodd" d="M10.4018 34.6845C11.3158 34.0058 12.6055 34.1984 13.2825 35.1146L20.37 44.7065C21.047 45.6227 20.8549 46.9156 19.941 47.5943C19.0271 48.273 17.7373 48.0804 17.0603 47.1642L9.97277 37.5723C9.29577 36.6561 9.48786 35.3632 10.4018 34.6845Z" fill="#FE621D"/>
<path fill-rule="evenodd" clip-rule="evenodd" d="M12.0969 29.053C13.1518 29.4794 13.6621 30.6823 13.2367 31.7398L8.93069 42.4444C8.50532 43.5018 7.30537 44.0134 6.25053 43.587C5.19569 43.1606 4.6854 41.9576 5.11077 40.9002L9.41677 30.1956C9.84214 29.1381 11.0421 28.6265 12.0969 29.053Z" fill="#FE621D"/>
<path fill-rule="evenodd" clip-rule="evenodd" d="M0 41.6723C-9.94328e-08 40.5321 0.922027 39.6078 2.05941 39.6078H7.0207C8.15808 39.6078 9.08011 40.5321 9.08011 41.6723C9.08011 42.8125 8.15808 43.7368 7.0207 43.7368H2.05941C0.922028 43.7368 9.94328e-08 42.8125 0 41.6723Z" fill="#FE621D"/>
<path d="M20.1327 22.4884C20.1327 24.6467 18.3874 26.3962 16.2345 26.3962C14.0816 26.3962 12.3364 24.6467 12.3364 22.4884C12.3364 20.3302 14.0816 18.5806 16.2345 18.5806C18.3874 18.5806 20.1327 20.3302 20.1327 22.4884Z" fill="#FE621D"/>
<path fill-rule="evenodd" clip-rule="evenodd" d="M36.7995 8.72491C35.0589 9.34808 34.1518 11.2678 34.7735 13.0126L36.5454 17.9862C37.167 19.7311 39.0819 20.6404 40.8225 20.0173C42.5631 19.3941 43.4701 17.4744 42.8485 15.7295L41.0766 10.7559C40.455 9.01106 38.5401 8.10174 36.7995 8.72491Z" fill="#FE621D"/>
<path fill-rule="evenodd" clip-rule="evenodd" d="M35.5252 10.2816C35.5026 11.4216 36.4061 12.364 37.5433 12.3867L44.6174 12.5274C45.7545 12.55 46.6947 11.6442 46.7172 10.5043C46.7398 9.3643 45.8363 8.42182 44.6991 8.3992L37.625 8.25845C36.4879 8.23582 35.5477 9.14161 35.5252 10.2816Z" fill="#FE621D"/>
<path fill-rule="evenodd" clip-rule="evenodd" d="M19.0495 10.3226C19.0495 9.18235 19.9715 8.25804 21.1089 8.25804L37.0693 8.25804C38.2067 8.25804 39.1287 9.18236 39.1287 10.3226C39.1287 11.4628 38.2067 12.3871 37.0693 12.3871L21.1089 12.3871C19.9715 12.3871 19.0495 11.4628 19.0495 10.3226Z" fill="#FE621D"/>
<path fill-rule="evenodd" clip-rule="evenodd" d="M2.57426 10.3226C2.57426 9.75245 3.03527 9.2903 3.60396 9.2903L19.5644 9.2903C20.133 9.2903 20.5941 9.75246 20.5941 10.3226C20.5941 10.8927 20.133 11.3548 19.5644 11.3548L3.60396 11.3548C3.03527 11.3548 2.57426 10.8927 2.57426 10.3226Z" fill="#FE621D"/>
<path d="M19.0495 10.3226C19.0495 12.0328 19.9715 13.4193 21.1088 13.4193C21.109 7.22579 21.1089 8.93608 21.1089 7.22579C19.9716 7.22579 19.0495 8.61226 19.0495 10.3226Z" fill="#FE621D"/>
<path fill-rule="evenodd" clip-rule="evenodd" d="M45.488 1.04025C46.6209 1.14048 47.4584 2.14247 47.3584 3.27826L46.7099 10.6448C46.6099 11.7805 45.6104 12.62 44.4774 12.5198C43.3444 12.4196 42.507 11.4176 42.607 10.2818L43.2555 2.91528C43.3555 1.77949 44.355 0.940014 45.488 1.04025Z" fill="#FE621D"/>
<path fill-rule="evenodd" clip-rule="evenodd" d="M40.8773 16.9022C41.6358 17.7519 41.5635 19.0571 40.716 19.8174L31.7495 27.861C30.902 28.6213 29.6 28.5489 28.8416 27.6992C28.0831 26.8496 28.1554 25.5444 29.0029 24.784L37.9693 16.7405C38.8169 15.9801 40.1189 16.0526 40.8773 16.9022Z" fill="#FE621D"/>
<path fill-rule="evenodd" clip-rule="evenodd" d="M39.7319 16.0885C40.5361 15.2823 41.8401 15.2823 42.6443 16.0885L51.3968 24.8627C52.2011 25.6689 52.2011 26.9761 51.3968 27.7823C50.5926 28.5886 49.2886 28.5886 48.4844 27.7823L39.7319 19.0082C38.9277 18.2019 38.9277 16.8948 39.7319 16.0885Z" fill="#FE621D"/>
<path d="M30.8377 3.90782C30.8377 6.06606 32.5829 7.81565 34.7358 7.81565C36.8887 7.81565 38.634 6.06606 38.634 3.90782C38.634 1.74959 36.8887 0 34.7358 0C32.5829 0 30.8377 1.74959 30.8377 3.90782Z" fill="#FE621D"/>
</svg>
