<svg width="1145" height="276" viewBox="0 0 1145 276" fill="none" xmlns="http://www.w3.org/2000/svg">
<path d="M27.48 168V82.56H51.48V168H27.48ZM1.92 102.96V82.56H77.16V102.96H1.92ZM80.1816 168V82.56H104.182V168H80.1816ZM131.782 168V82.56H155.782V168H131.782ZM93.2616 134.4V114.48H141.142V134.4H93.2616ZM163.947 168V82.56H187.947V168H163.947ZM183.387 168V148.08H229.227V168H183.387ZM183.387 134.16V114.72H224.787V134.16H183.387ZM183.387 102.48V82.56H228.507V102.48H183.387ZM277.75 169.44C270.47 169.44 264.11 168.4 258.67 166.32C253.31 164.16 248.35 160.76 243.79 156.12L258.79 141.12C261.91 144.08 265.19 146.36 268.63 147.96C272.07 149.48 275.75 150.24 279.67 150.24C282.95 150.24 285.43 149.76 287.11 148.8C288.79 147.76 289.63 146.36 289.63 144.6C289.63 142.84 288.91 141.4 287.47 140.28C286.03 139.08 284.11 138.04 281.71 137.16C279.39 136.2 276.79 135.24 273.91 134.28C271.11 133.32 268.31 132.16 265.51 130.8C262.71 129.44 260.11 127.8 257.71 125.88C255.39 123.88 253.51 121.44 252.07 118.56C250.63 115.6 249.91 112 249.91 107.76C249.91 102.24 251.23 97.48 253.87 93.48C256.51 89.48 260.23 86.44 265.03 84.36C269.83 82.2 275.47 81.12 281.95 81.12C288.35 81.12 294.27 82.16 299.71 84.24C305.23 86.24 309.79 89.12 313.39 92.88L298.27 107.88C295.63 105.32 292.99 103.44 290.35 102.24C287.71 100.96 284.83 100.32 281.71 100.32C279.23 100.32 277.23 100.72 275.71 101.52C274.27 102.32 273.55 103.52 273.55 105.12C273.55 106.8 274.27 108.2 275.71 109.32C277.15 110.36 279.03 111.32 281.35 112.2C283.75 113.08 286.35 114 289.15 114.96C292.03 115.92 294.87 117.08 297.67 118.44C300.47 119.72 303.03 121.4 305.35 123.48C307.75 125.48 309.67 128 311.11 131.04C312.55 134.08 313.27 137.76 313.27 142.08C313.27 150.8 310.15 157.56 303.91 162.36C297.75 167.08 289.03 169.44 277.75 169.44ZM337.332 168L310.452 82.56H334.332L353.292 148.32H342.252L360.972 82.56H380.772L399.492 148.32H388.572L407.532 82.56H431.172L404.292 168H384.372L365.652 102.36H375.972L357.252 168H337.332ZM472.812 169.68C466.092 169.68 459.892 168.56 454.212 166.32C448.612 164.08 443.692 160.96 439.452 156.96C435.292 152.96 432.052 148.24 429.732 142.8C427.412 137.36 426.252 131.48 426.252 125.16C426.252 118.76 427.372 112.88 429.612 107.52C431.932 102.16 435.172 97.48 439.332 93.48C443.492 89.48 448.372 86.4 453.972 84.24C459.652 82 465.852 80.88 472.572 80.88C479.292 80.88 485.452 82 491.052 84.24C496.732 86.4 501.652 89.48 505.812 93.48C509.972 97.48 513.172 102.2 515.412 107.64C517.732 113 518.892 118.88 518.892 125.28C518.892 131.6 517.732 137.48 515.412 142.92C513.172 148.28 509.972 153 505.812 157.08C501.652 161.08 496.772 164.2 491.172 166.44C485.572 168.6 479.452 169.68 472.812 169.68ZM472.572 148.56C477.052 148.56 480.932 147.6 484.212 145.68C487.492 143.76 490.012 141.04 491.772 137.52C493.532 134 494.412 129.88 494.412 125.16C494.412 121.64 493.892 118.48 492.852 115.68C491.892 112.8 490.452 110.36 488.532 108.36C486.612 106.28 484.292 104.72 481.572 103.68C478.932 102.56 475.932 102 472.572 102C468.092 102 464.212 102.96 460.932 104.88C457.652 106.72 455.132 109.4 453.372 112.92C451.612 116.36 450.732 120.44 450.732 125.16C450.732 128.76 451.212 132 452.172 134.88C453.212 137.76 454.692 140.24 456.612 142.32C458.532 144.32 460.812 145.88 463.452 147C466.172 148.04 469.212 148.56 472.572 148.56ZM542.215 133.92V117.36H556.735C560.015 117.36 562.495 116.56 564.175 114.96C565.935 113.36 566.815 111.24 566.815 108.6C566.815 105.96 565.935 103.84 564.175 102.24C562.495 100.64 560.015 99.84 556.735 99.84H542.215V82.56H560.575C566.495 82.56 571.695 83.64 576.175 85.8C580.655 87.96 584.175 90.96 586.735 94.8C589.295 98.64 590.575 103.12 590.575 108.24C590.575 113.36 589.255 117.84 586.615 121.68C584.055 125.52 580.455 128.52 575.815 130.68C571.175 132.84 565.695 133.92 559.375 133.92H542.215ZM522.775 168V82.56H546.775V168H522.775ZM568.855 168L545.575 131.52L567.175 126.84L596.095 168H568.855ZM612.191 168V147.6H632.111C636.591 147.6 640.471 146.8 643.751 145.2C647.031 143.52 649.551 141 651.311 137.64C653.071 134.28 653.951 130.12 653.951 125.16C653.951 120.2 653.031 116.08 651.191 112.8C649.431 109.52 646.911 107.08 643.631 105.48C640.431 103.8 636.591 102.96 632.111 102.96H610.991V82.56H632.111C638.831 82.56 644.991 83.56 650.591 85.56C656.271 87.56 661.191 90.44 665.351 94.2C669.511 97.96 672.711 102.48 674.951 107.76C677.271 112.96 678.431 118.8 678.431 125.28C678.431 131.76 677.271 137.64 674.951 142.92C672.711 148.12 669.511 152.6 665.351 156.36C661.191 160.12 656.311 163 650.711 165C645.111 167 638.991 168 632.351 168H612.191ZM596.111 168V82.56H620.111V168H596.111ZM740.023 169.44C733.463 169.44 727.343 168.36 721.663 166.2C716.063 163.96 711.143 160.84 706.903 156.84C702.663 152.84 699.343 148.16 696.943 142.8C694.623 137.36 693.463 131.48 693.463 125.16C693.463 118.76 694.623 112.88 696.943 107.52C699.343 102.16 702.623 97.52 706.783 93.6C711.023 89.68 715.943 86.64 721.543 84.48C727.143 82.24 733.223 81.12 739.783 81.12C746.423 81.12 752.503 82.16 758.023 84.24C763.543 86.32 768.343 89.2 772.423 92.88L756.463 108.96C754.543 106.88 752.183 105.24 749.383 104.04C746.663 102.84 743.463 102.24 739.783 102.24C736.583 102.24 733.623 102.76 730.903 103.8C728.263 104.84 725.983 106.36 724.063 108.36C722.143 110.36 720.623 112.8 719.503 115.68C718.463 118.48 717.943 121.64 717.943 125.16C717.943 128.76 718.463 132 719.503 134.88C720.623 137.68 722.143 140.08 724.063 142.08C725.983 144.08 728.263 145.64 730.903 146.76C733.623 147.8 736.583 148.32 739.783 148.32C743.383 148.32 746.583 147.76 749.383 146.64C752.263 145.52 754.743 143.88 756.823 141.72L772.903 157.8C768.663 161.48 763.903 164.36 758.623 166.44C753.343 168.44 747.143 169.44 740.023 169.44ZM775.221 168V82.56H799.221V168H775.221ZM807.424 168V82.56H824.224L831.424 100.56V168H807.424ZM866.224 168L816.664 105.72L824.224 82.56L873.784 144.84L866.224 168ZM866.224 168L860.224 149.04V82.56H884.224V168H866.224ZM892.361 168V82.56H916.361V168H892.361ZM911.801 168V148.08H957.641V168H911.801ZM911.801 134.16V114.72H953.201V134.16H911.801ZM911.801 102.48V82.56H956.921V102.48H911.801ZM963.002 168V82.56H980.402L1012.2 129.12H1004.64L1036.32 82.56H1053.72V168H1029.96V121.92L1033.44 122.88L1016.04 147.84H1000.68L983.402 122.88L986.762 121.92V168H963.002ZM1055.52 168L1088.04 82.56H1112.52L1144.68 168H1119.72L1095.84 95.4H1104.48L1080 168H1055.52ZM1076.64 153.6V134.88H1124.4V153.6H1076.64Z" fill="black"/>
<path d="M116.765 239L112.24 226.925H115.54L118.49 235.7L117.49 235.725L120.515 226.925H122.89L125.915 235.725L124.915 235.7L127.865 226.925H131.165L126.665 239H124.29L121.24 230.65H122.165L119.115 239H116.765ZM131.308 239V226.925H134.608V239H131.308ZM132.958 224.975C132.425 224.975 131.983 224.8 131.633 224.45C131.283 224.083 131.108 223.633 131.108 223.1C131.108 222.583 131.283 222.142 131.633 221.775C131.983 221.408 132.425 221.225 132.958 221.225C133.508 221.225 133.95 221.408 134.283 221.775C134.633 222.142 134.808 222.583 134.808 223.1C134.808 223.633 134.633 224.083 134.283 224.45C133.95 224.8 133.508 224.975 132.958 224.975ZM138.035 239V221.9H141.31V239H138.035ZM135.21 229.8V226.925H144.135V229.8H135.21ZM152.851 239V232.075C152.851 231.358 152.626 230.775 152.176 230.325C151.726 229.875 151.143 229.65 150.426 229.65C149.96 229.65 149.543 229.75 149.176 229.95C148.81 230.15 148.518 230.433 148.301 230.8C148.101 231.167 148.001 231.592 148.001 232.075L146.726 231.425C146.726 230.475 146.926 229.65 147.326 228.95C147.726 228.233 148.276 227.675 148.976 227.275C149.693 226.875 150.51 226.675 151.426 226.675C152.343 226.675 153.151 226.875 153.851 227.275C154.568 227.675 155.126 228.225 155.526 228.925C155.926 229.625 156.126 230.433 156.126 231.35V239H152.851ZM144.726 239V220.925H148.001V239H144.726ZM161.497 239V221.425H163.872L164.897 224.825V239H161.497ZM173.647 239L163.222 225.5L163.872 221.425L174.297 234.925L173.647 239ZM173.647 239L172.672 235.7V221.425H176.097V239H173.647ZM178.061 239V226.925H181.361V239H178.061ZM179.711 224.975C179.178 224.975 178.736 224.8 178.386 224.45C178.036 224.083 177.861 223.633 177.861 223.1C177.861 222.583 178.036 222.142 178.386 221.775C178.736 221.408 179.178 221.225 179.711 221.225C180.261 221.225 180.703 221.408 181.036 221.775C181.386 222.142 181.561 222.583 181.561 223.1C181.561 223.633 181.386 224.083 181.036 224.45C180.703 224.8 180.261 224.975 179.711 224.975ZM188.713 239.25C187.479 239.25 186.371 238.975 185.388 238.425C184.404 237.875 183.629 237.125 183.063 236.175C182.496 235.225 182.213 234.158 182.213 232.975C182.213 231.775 182.496 230.7 183.063 229.75C183.629 228.8 184.404 228.05 185.388 227.5C186.388 226.933 187.496 226.65 188.713 226.65C189.663 226.65 190.538 226.825 191.338 227.175C192.138 227.525 192.829 228.025 193.413 228.675L191.313 230.8C190.996 230.45 190.613 230.183 190.163 230C189.729 229.817 189.246 229.725 188.713 229.725C188.113 229.725 187.571 229.867 187.088 230.15C186.621 230.417 186.246 230.792 185.963 231.275C185.696 231.742 185.563 232.3 185.563 232.95C185.563 233.583 185.696 234.15 185.963 234.65C186.246 235.133 186.621 235.517 187.088 235.8C187.571 236.067 188.113 236.2 188.713 236.2C189.263 236.2 189.754 236.108 190.188 235.925C190.638 235.725 191.021 235.442 191.338 235.075L193.463 237.2C192.846 237.867 192.138 238.375 191.338 238.725C190.538 239.075 189.663 239.25 188.713 239.25ZM199.474 239.25C198.257 239.25 197.157 238.975 196.174 238.425C195.207 237.858 194.432 237.1 193.849 236.15C193.282 235.183 192.999 234.108 192.999 232.925C192.999 231.742 193.282 230.683 193.849 229.75C194.415 228.8 195.19 228.05 196.174 227.5C197.157 226.933 198.249 226.65 199.449 226.65C200.682 226.65 201.782 226.933 202.749 227.5C203.732 228.05 204.507 228.8 205.074 229.75C205.64 230.683 205.924 231.742 205.924 232.925C205.924 234.108 205.64 235.183 205.074 236.15C204.507 237.1 203.732 237.858 202.749 238.425C201.782 238.975 200.69 239.25 199.474 239.25ZM199.449 236.2C200.065 236.2 200.607 236.067 201.074 235.8C201.557 235.517 201.924 235.133 202.174 234.65C202.44 234.15 202.574 233.583 202.574 232.95C202.574 232.317 202.44 231.758 202.174 231.275C201.907 230.792 201.54 230.417 201.074 230.15C200.607 229.867 200.065 229.725 199.449 229.725C198.849 229.725 198.315 229.867 197.849 230.15C197.382 230.417 197.015 230.792 196.749 231.275C196.482 231.758 196.349 232.317 196.349 232.95C196.349 233.583 196.482 234.15 196.749 234.65C197.015 235.133 197.382 235.517 197.849 235.8C198.315 236.067 198.849 236.2 199.449 236.2ZM212.19 239V221.9H215.465V239H212.19ZM209.365 229.8V226.925H218.29V229.8H209.365ZM227.007 239V232.075C227.007 231.358 226.782 230.775 226.332 230.325C225.882 229.875 225.298 229.65 224.582 229.65C224.115 229.65 223.698 229.75 223.332 229.95C222.965 230.15 222.673 230.433 222.457 230.8C222.257 231.167 222.157 231.592 222.157 232.075L220.882 231.425C220.882 230.475 221.082 229.65 221.482 228.95C221.882 228.233 222.432 227.675 223.132 227.275C223.848 226.875 224.665 226.675 225.582 226.675C226.498 226.675 227.307 226.875 228.007 227.275C228.723 227.675 229.282 228.225 229.682 228.925C230.082 229.625 230.282 230.433 230.282 231.35V239H227.007ZM218.882 239V220.925H222.157V239H218.882ZM237.445 239.25C236.178 239.25 235.053 238.983 234.07 238.45C233.086 237.9 232.303 237.15 231.72 236.2C231.153 235.25 230.87 234.167 230.87 232.95C230.87 231.75 231.145 230.683 231.695 229.75C232.261 228.8 233.028 228.05 233.995 227.5C234.961 226.933 236.036 226.65 237.22 226.65C238.386 226.65 239.411 226.917 240.295 227.45C241.195 227.967 241.895 228.683 242.395 229.6C242.911 230.5 243.17 231.525 243.17 232.675C243.17 232.892 243.153 233.117 243.12 233.35C243.103 233.567 243.061 233.817 242.995 234.1L232.845 234.125V231.675L241.47 231.65L240.145 232.675C240.111 231.958 239.978 231.358 239.745 230.875C239.528 230.392 239.203 230.025 238.77 229.775C238.353 229.508 237.836 229.375 237.22 229.375C236.57 229.375 236.003 229.525 235.52 229.825C235.036 230.108 234.661 230.517 234.395 231.05C234.145 231.567 234.02 232.183 234.02 232.9C234.02 233.633 234.153 234.275 234.42 234.825C234.703 235.358 235.103 235.775 235.62 236.075C236.136 236.358 236.736 236.5 237.42 236.5C238.036 236.5 238.595 236.4 239.095 236.2C239.595 235.983 240.028 235.667 240.395 235.25L242.32 237.175C241.736 237.858 241.02 238.375 240.17 238.725C239.336 239.075 238.428 239.25 237.445 239.25ZM247.928 239V221.425H250.328L257.453 232.825H256.078L263.178 221.425H265.578V239H262.203V227.25L262.853 227.45L257.903 235.4H255.603L250.653 227.45L251.328 227.25V239H247.928ZM273.243 239.25C272.026 239.25 270.926 238.975 269.943 238.425C268.976 237.858 268.201 237.1 267.618 236.15C267.051 235.183 266.768 234.108 266.768 232.925C266.768 231.742 267.051 230.683 267.618 229.75C268.185 228.8 268.96 228.05 269.943 227.5C270.926 226.933 272.018 226.65 273.218 226.65C274.451 226.65 275.551 226.933 276.518 227.5C277.501 228.05 278.276 228.8 278.843 229.75C279.41 230.683 279.693 231.742 279.693 232.925C279.693 234.108 279.41 235.183 278.843 236.15C278.276 237.1 277.501 237.858 276.518 238.425C275.551 238.975 274.46 239.25 273.243 239.25ZM273.218 236.2C273.835 236.2 274.376 236.067 274.843 235.8C275.326 235.517 275.693 235.133 275.943 234.65C276.21 234.15 276.343 233.583 276.343 232.95C276.343 232.317 276.21 231.758 275.943 231.275C275.676 230.792 275.31 230.417 274.843 230.15C274.376 229.867 273.835 229.725 273.218 229.725C272.618 229.725 272.085 229.867 271.618 230.15C271.151 230.417 270.785 230.792 270.518 231.275C270.251 231.758 270.118 232.317 270.118 232.95C270.118 233.583 270.251 234.15 270.518 234.65C270.785 235.133 271.151 235.517 271.618 235.8C272.085 236.067 272.618 236.2 273.218 236.2ZM284.702 239.275C284.018 239.275 283.343 239.183 282.677 239C282.027 238.817 281.427 238.567 280.877 238.25C280.327 237.917 279.852 237.517 279.452 237.05L281.402 235.075C281.818 235.542 282.302 235.892 282.852 236.125C283.402 236.358 284.01 236.475 284.677 236.475C285.21 236.475 285.61 236.4 285.877 236.25C286.16 236.1 286.302 235.875 286.302 235.575C286.302 235.242 286.152 234.983 285.852 234.8C285.568 234.617 285.193 234.467 284.727 234.35C284.26 234.217 283.768 234.075 283.252 233.925C282.752 233.758 282.268 233.55 281.802 233.3C281.335 233.033 280.952 232.675 280.652 232.225C280.368 231.758 280.227 231.158 280.227 230.425C280.227 229.658 280.41 228.992 280.777 228.425C281.16 227.858 281.702 227.417 282.402 227.1C283.102 226.783 283.927 226.625 284.877 226.625C285.877 226.625 286.777 226.8 287.577 227.15C288.393 227.5 289.068 228.025 289.602 228.725L287.627 230.7C287.26 230.25 286.843 229.925 286.377 229.725C285.927 229.525 285.435 229.425 284.902 229.425C284.418 229.425 284.043 229.5 283.777 229.65C283.527 229.8 283.402 230.008 283.402 230.275C283.402 230.575 283.543 230.808 283.827 230.975C284.127 231.142 284.51 231.292 284.977 231.425C285.443 231.542 285.927 231.683 286.427 231.85C286.943 232 287.427 232.217 287.877 232.5C288.343 232.783 288.718 233.158 289.002 233.625C289.302 234.092 289.452 234.692 289.452 235.425C289.452 236.608 289.027 237.55 288.177 238.25C287.327 238.933 286.168 239.275 284.702 239.275ZM292.185 239V221.9H295.46V239H292.185ZM289.36 229.8V226.925H298.285V229.8H289.36ZM305.36 231.65V229H309.435C310.268 229 310.91 228.792 311.36 228.375C311.826 227.942 312.06 227.35 312.06 226.6C312.06 225.917 311.826 225.35 311.36 224.9C310.91 224.433 310.268 224.2 309.435 224.2H305.36V221.425H309.735C310.868 221.425 311.86 221.65 312.71 222.1C313.576 222.533 314.243 223.133 314.71 223.9C315.193 224.667 315.435 225.55 315.435 226.55C315.435 227.583 315.193 228.483 314.71 229.25C314.243 230 313.576 230.592 312.71 231.025C311.843 231.442 310.835 231.65 309.685 231.65H305.36ZM302.86 239V221.425H306.26V239H302.86ZM312.46 239L306.66 231.4L309.785 230.425L316.585 239H312.46ZM317.251 239V226.925H320.551V239H317.251ZM318.901 224.975C318.367 224.975 317.926 224.8 317.576 224.45C317.226 224.083 317.051 223.633 317.051 223.1C317.051 222.583 317.226 222.142 317.576 221.775C317.926 221.408 318.367 221.225 318.901 221.225C319.451 221.225 319.892 221.408 320.226 221.775C320.576 222.142 320.751 222.583 320.751 223.1C320.751 223.633 320.576 224.083 320.226 224.45C319.892 224.8 319.451 224.975 318.901 224.975ZM327.252 244.35C325.969 244.35 324.835 244.117 323.852 243.65C322.869 243.2 322.085 242.558 321.502 241.725L323.577 239.65C324.044 240.2 324.56 240.617 325.127 240.9C325.71 241.2 326.41 241.35 327.227 241.35C328.244 241.35 329.044 241.092 329.627 240.575C330.227 240.058 330.527 239.342 330.527 238.425V235.4L331.077 232.75L330.552 230.1V226.925H333.802V238.375C333.802 239.575 333.519 240.617 332.952 241.5C332.402 242.4 331.635 243.1 330.652 243.6C329.669 244.1 328.535 244.35 327.252 244.35ZM327.102 238.675C326.019 238.675 325.044 238.417 324.177 237.9C323.31 237.367 322.627 236.642 322.127 235.725C321.644 234.808 321.402 233.783 321.402 232.65C321.402 231.517 321.644 230.5 322.127 229.6C322.627 228.7 323.31 227.992 324.177 227.475C325.044 226.942 326.019 226.675 327.102 226.675C328.002 226.675 328.794 226.85 329.477 227.2C330.177 227.55 330.727 228.033 331.127 228.65C331.527 229.25 331.744 229.958 331.777 230.775V234.575C331.744 235.375 331.519 236.092 331.102 236.725C330.702 237.342 330.152 237.825 329.452 238.175C328.769 238.508 327.985 238.675 327.102 238.675ZM327.752 235.7C328.352 235.7 328.869 235.575 329.302 235.325C329.752 235.058 330.102 234.7 330.352 234.25C330.602 233.783 330.727 233.258 330.727 232.675C330.727 232.075 330.602 231.55 330.352 231.1C330.102 230.65 329.752 230.3 329.302 230.05C328.869 229.783 328.352 229.65 327.752 229.65C327.152 229.65 326.627 229.783 326.177 230.05C325.727 230.3 325.377 230.658 325.127 231.125C324.877 231.575 324.752 232.092 324.752 232.675C324.752 233.242 324.877 233.758 325.127 234.225C325.377 234.675 325.727 235.033 326.177 235.3C326.627 235.567 327.152 235.7 327.752 235.7ZM343.554 239V232.075C343.554 231.358 343.329 230.775 342.879 230.325C342.429 229.875 341.846 229.65 341.129 229.65C340.663 229.65 340.246 229.75 339.879 229.95C339.513 230.15 339.221 230.433 339.004 230.8C338.804 231.167 338.704 231.592 338.704 232.075L337.429 231.425C337.429 230.475 337.629 229.65 338.029 228.95C338.429 228.233 338.979 227.675 339.679 227.275C340.396 226.875 341.213 226.675 342.129 226.675C343.046 226.675 343.854 226.875 344.554 227.275C345.271 227.675 345.829 228.225 346.229 228.925C346.629 229.625 346.829 230.433 346.829 231.35V239H343.554ZM335.429 239V220.925H338.704V239H335.429ZM349.846 239V221.9H353.121V239H349.846ZM347.021 229.8V226.925H355.946V229.8H347.021ZM362.02 239.25C360.753 239.25 359.628 238.983 358.645 238.45C357.662 237.9 356.878 237.15 356.295 236.2C355.728 235.25 355.445 234.167 355.445 232.95C355.445 231.75 355.72 230.683 356.27 229.75C356.837 228.8 357.603 228.05 358.57 227.5C359.537 226.933 360.612 226.65 361.795 226.65C362.962 226.65 363.987 226.917 364.87 227.45C365.77 227.967 366.47 228.683 366.97 229.6C367.487 230.5 367.745 231.525 367.745 232.675C367.745 232.892 367.728 233.117 367.695 233.35C367.678 233.567 367.637 233.817 367.57 234.1L357.42 234.125V231.675L366.045 231.65L364.72 232.675C364.687 231.958 364.553 231.358 364.32 230.875C364.103 230.392 363.778 230.025 363.345 229.775C362.928 229.508 362.412 229.375 361.795 229.375C361.145 229.375 360.578 229.525 360.095 229.825C359.612 230.108 359.237 230.517 358.97 231.05C358.72 231.567 358.595 232.183 358.595 232.9C358.595 233.633 358.728 234.275 358.995 234.825C359.278 235.358 359.678 235.775 360.195 236.075C360.712 236.358 361.312 236.5 361.995 236.5C362.612 236.5 363.17 236.4 363.67 236.2C364.17 235.983 364.603 235.667 364.97 235.25L366.895 237.175C366.312 237.858 365.595 238.375 364.745 238.725C363.912 239.075 363.003 239.25 362.02 239.25ZM374.195 239.25C372.979 239.25 371.879 238.975 370.895 238.425C369.929 237.858 369.154 237.1 368.57 236.15C368.004 235.183 367.72 234.108 367.72 232.925C367.72 231.742 368.004 230.683 368.57 229.75C369.137 228.8 369.912 228.05 370.895 227.5C371.879 226.933 372.97 226.65 374.17 226.65C375.404 226.65 376.504 226.933 377.47 227.5C378.454 228.05 379.229 228.8 379.795 229.75C380.362 230.683 380.645 231.742 380.645 232.925C380.645 234.108 380.362 235.183 379.795 236.15C379.229 237.1 378.454 237.858 377.47 238.425C376.504 238.975 375.412 239.25 374.195 239.25ZM374.17 236.2C374.787 236.2 375.329 236.067 375.795 235.8C376.279 235.517 376.645 235.133 376.895 234.65C377.162 234.15 377.295 233.583 377.295 232.95C377.295 232.317 377.162 231.758 376.895 231.275C376.629 230.792 376.262 230.417 375.795 230.15C375.329 229.867 374.787 229.725 374.17 229.725C373.57 229.725 373.037 229.867 372.57 230.15C372.104 230.417 371.737 230.792 371.47 231.275C371.204 231.758 371.07 232.317 371.07 232.95C371.07 233.583 371.204 234.15 371.47 234.65C371.737 235.133 372.104 235.517 372.57 235.8C373.037 236.067 373.57 236.2 374.17 236.2ZM386.654 239.25C385.587 239.25 384.637 239.025 383.804 238.575C382.987 238.125 382.345 237.5 381.879 236.7C381.412 235.9 381.179 234.975 381.179 233.925V226.925H384.479V233.85C384.479 234.35 384.562 234.783 384.729 235.15C384.895 235.5 385.145 235.767 385.479 235.95C385.812 236.133 386.204 236.225 386.654 236.225C387.337 236.225 387.87 236.017 388.254 235.6C388.637 235.183 388.829 234.6 388.829 233.85V226.925H392.104V233.925C392.104 234.992 391.87 235.925 391.404 236.725C390.954 237.525 390.312 238.15 389.479 238.6C388.662 239.033 387.72 239.25 386.654 239.25ZM397.612 239.275C396.928 239.275 396.253 239.183 395.587 239C394.937 238.817 394.337 238.567 393.787 238.25C393.237 237.917 392.762 237.517 392.362 237.05L394.312 235.075C394.728 235.542 395.212 235.892 395.762 236.125C396.312 236.358 396.92 236.475 397.587 236.475C398.12 236.475 398.52 236.4 398.787 236.25C399.07 236.1 399.212 235.875 399.212 235.575C399.212 235.242 399.062 234.983 398.762 234.8C398.478 234.617 398.103 234.467 397.637 234.35C397.17 234.217 396.678 234.075 396.162 233.925C395.662 233.758 395.178 233.55 394.712 233.3C394.245 233.033 393.862 232.675 393.562 232.225C393.278 231.758 393.137 231.158 393.137 230.425C393.137 229.658 393.32 228.992 393.687 228.425C394.07 227.858 394.612 227.417 395.312 227.1C396.012 226.783 396.837 226.625 397.787 226.625C398.787 226.625 399.687 226.8 400.487 227.15C401.303 227.5 401.978 228.025 402.512 228.725L400.537 230.7C400.17 230.25 399.753 229.925 399.287 229.725C398.837 229.525 398.345 229.425 397.812 229.425C397.328 229.425 396.953 229.5 396.687 229.65C396.437 229.8 396.312 230.008 396.312 230.275C396.312 230.575 396.453 230.808 396.737 230.975C397.037 231.142 397.42 231.292 397.887 231.425C398.353 231.542 398.837 231.683 399.337 231.85C399.853 232 400.337 232.217 400.787 232.5C401.253 232.783 401.628 233.158 401.912 233.625C402.212 234.092 402.362 234.692 402.362 235.425C402.362 236.608 401.937 237.55 401.087 238.25C400.237 238.933 399.078 239.275 397.612 239.275ZM407.303 239V221.425H410.703V239H407.303ZM409.803 231.8V228.775H418.653V231.8H409.803ZM409.803 224.425V221.425H419.078V224.425H409.803ZM425.54 239.25C424.274 239.25 423.149 238.983 422.165 238.45C421.182 237.9 420.399 237.15 419.815 236.2C419.249 235.25 418.965 234.167 418.965 232.95C418.965 231.75 419.24 230.683 419.79 229.75C420.357 228.8 421.124 228.05 422.09 227.5C423.057 226.933 424.132 226.65 425.315 226.65C426.482 226.65 427.507 226.917 428.39 227.45C429.29 227.967 429.99 228.683 430.49 229.6C431.007 230.5 431.265 231.525 431.265 232.675C431.265 232.892 431.249 233.117 431.215 233.35C431.199 233.567 431.157 233.817 431.09 234.1L420.94 234.125V231.675L429.565 231.65L428.24 232.675C428.207 231.958 428.074 231.358 427.84 230.875C427.624 230.392 427.299 230.025 426.865 229.775C426.449 229.508 425.932 229.375 425.315 229.375C424.665 229.375 424.099 229.525 423.615 229.825C423.132 230.108 422.757 230.517 422.49 231.05C422.24 231.567 422.115 232.183 422.115 232.9C422.115 233.633 422.249 234.275 422.515 234.825C422.799 235.358 423.199 235.775 423.715 236.075C424.232 236.358 424.832 236.5 425.515 236.5C426.132 236.5 426.69 236.4 427.19 236.2C427.69 235.983 428.124 235.667 428.49 235.25L430.415 237.175C429.832 237.858 429.115 238.375 428.265 238.725C427.432 239.075 426.524 239.25 425.54 239.25ZM440.166 239V232.075C440.166 231.358 439.941 230.775 439.491 230.325C439.041 229.875 438.457 229.65 437.741 229.65C437.274 229.65 436.857 229.75 436.491 229.95C436.124 230.15 435.832 230.433 435.616 230.8C435.416 231.167 435.316 231.592 435.316 232.075L434.041 231.425C434.041 230.475 434.241 229.65 434.641 228.95C435.057 228.233 435.624 227.675 436.341 227.275C437.074 226.875 437.899 226.675 438.816 226.675C439.699 226.675 440.491 226.9 441.191 227.35C441.891 227.783 442.441 228.358 442.841 229.075C443.241 229.775 443.441 230.533 443.441 231.35V239H440.166ZM432.041 239V226.925H435.316V239H432.041ZM450.529 239.25C449.296 239.25 448.187 238.975 447.204 238.425C446.221 237.875 445.446 237.125 444.879 236.175C444.312 235.225 444.029 234.158 444.029 232.975C444.029 231.775 444.312 230.7 444.879 229.75C445.446 228.8 446.221 228.05 447.204 227.5C448.204 226.933 449.312 226.65 450.529 226.65C451.479 226.65 452.354 226.825 453.154 227.175C453.954 227.525 454.646 228.025 455.229 228.675L453.129 230.8C452.812 230.45 452.429 230.183 451.979 230C451.546 229.817 451.062 229.725 450.529 229.725C449.929 229.725 449.387 229.867 448.904 230.15C448.437 230.417 448.062 230.792 447.779 231.275C447.512 231.742 447.379 232.3 447.379 232.95C447.379 233.583 447.512 234.15 447.779 234.65C448.062 235.133 448.437 235.517 448.904 235.8C449.387 236.067 449.929 236.2 450.529 236.2C451.079 236.2 451.571 236.108 452.004 235.925C452.454 235.725 452.837 235.442 453.154 235.075L455.279 237.2C454.662 237.867 453.954 238.375 453.154 238.725C452.354 239.075 451.479 239.25 450.529 239.25ZM461.39 239.25C460.123 239.25 458.998 238.983 458.015 238.45C457.032 237.9 456.248 237.15 455.665 236.2C455.098 235.25 454.815 234.167 454.815 232.95C454.815 231.75 455.09 230.683 455.64 229.75C456.207 228.8 456.973 228.05 457.94 227.5C458.907 226.933 459.982 226.65 461.165 226.65C462.332 226.65 463.357 226.917 464.24 227.45C465.14 227.967 465.84 228.683 466.34 229.6C466.857 230.5 467.115 231.525 467.115 232.675C467.115 232.892 467.098 233.117 467.065 233.35C467.048 233.567 467.007 233.817 466.94 234.1L456.79 234.125V231.675L465.415 231.65L464.09 232.675C464.057 231.958 463.923 231.358 463.69 230.875C463.473 230.392 463.148 230.025 462.715 229.775C462.298 229.508 461.782 229.375 461.165 229.375C460.515 229.375 459.948 229.525 459.465 229.825C458.982 230.108 458.607 230.517 458.34 231.05C458.09 231.567 457.965 232.183 457.965 232.9C457.965 233.633 458.098 234.275 458.365 234.825C458.648 235.358 459.048 235.775 459.565 236.075C460.082 236.358 460.682 236.5 461.365 236.5C461.982 236.5 462.54 236.4 463.04 236.2C463.54 235.983 463.973 235.667 464.34 235.25L466.265 237.175C465.682 237.858 464.965 238.375 464.115 238.725C463.282 239.075 462.373 239.25 461.39 239.25ZM467.89 239V226.925H471.165V239H467.89ZM471.165 232.325L469.89 231.475C470.04 229.992 470.474 228.825 471.19 227.975C471.907 227.108 472.94 226.675 474.29 226.675C474.874 226.675 475.399 226.775 475.865 226.975C476.332 227.158 476.757 227.467 477.14 227.9L475.09 230.25C474.907 230.05 474.682 229.9 474.415 229.8C474.165 229.7 473.874 229.65 473.54 229.65C472.84 229.65 472.265 229.875 471.815 230.325C471.382 230.758 471.165 231.425 471.165 232.325ZM481.113 239V226.925H484.413V239H481.113ZM482.763 224.975C482.23 224.975 481.788 224.8 481.438 224.45C481.088 224.083 480.913 223.633 480.913 223.1C480.913 222.583 481.088 222.142 481.438 221.775C481.788 221.408 482.23 221.225 482.763 221.225C483.313 221.225 483.755 221.408 484.088 221.775C484.438 222.142 484.613 222.583 484.613 223.1C484.613 223.633 484.438 224.083 484.088 224.45C483.755 224.8 483.313 224.975 482.763 224.975ZM494.189 239V232.075C494.189 231.358 493.964 230.775 493.514 230.325C493.064 229.875 492.481 229.65 491.764 229.65C491.298 229.65 490.881 229.75 490.514 229.95C490.148 230.15 489.856 230.433 489.639 230.8C489.439 231.167 489.339 231.592 489.339 232.075L488.064 231.425C488.064 230.475 488.264 229.65 488.664 228.95C489.081 228.233 489.648 227.675 490.364 227.275C491.098 226.875 491.923 226.675 492.839 226.675C493.723 226.675 494.514 226.9 495.214 227.35C495.914 227.783 496.464 228.358 496.864 229.075C497.264 229.775 497.464 230.533 497.464 231.35V239H494.189ZM486.064 239V226.925H489.339V239H486.064ZM504.26 239V221.9H507.535V239H504.26ZM501.435 229.8V226.925H510.36V229.8H501.435ZM519.077 239V232.075C519.077 231.358 518.852 230.775 518.402 230.325C517.952 229.875 517.369 229.65 516.652 229.65C516.185 229.65 515.769 229.75 515.402 229.95C515.035 230.15 514.744 230.433 514.527 230.8C514.327 231.167 514.227 231.592 514.227 232.075L512.952 231.425C512.952 230.475 513.152 229.65 513.552 228.95C513.952 228.233 514.502 227.675 515.202 227.275C515.919 226.875 516.735 226.675 517.652 226.675C518.569 226.675 519.377 226.875 520.077 227.275C520.794 227.675 521.352 228.225 521.752 228.925C522.152 229.625 522.352 230.433 522.352 231.35V239H519.077ZM510.952 239V220.925H514.227V239H510.952ZM529.515 239.25C528.248 239.25 527.123 238.983 526.14 238.45C525.157 237.9 524.373 237.15 523.79 236.2C523.223 235.25 522.94 234.167 522.94 232.95C522.94 231.75 523.215 230.683 523.765 229.75C524.332 228.8 525.098 228.05 526.065 227.5C527.032 226.933 528.107 226.65 529.29 226.65C530.457 226.65 531.482 226.917 532.365 227.45C533.265 227.967 533.965 228.683 534.465 229.6C534.982 230.5 535.24 231.525 535.24 232.675C535.24 232.892 535.223 233.117 535.19 233.35C535.173 233.567 535.132 233.817 535.065 234.1L524.915 234.125V231.675L533.54 231.65L532.215 232.675C532.182 231.958 532.048 231.358 531.815 230.875C531.598 230.392 531.273 230.025 530.84 229.775C530.423 229.508 529.907 229.375 529.29 229.375C528.64 229.375 528.073 229.525 527.59 229.825C527.107 230.108 526.732 230.517 526.465 231.05C526.215 231.567 526.09 232.183 526.09 232.9C526.09 233.633 526.223 234.275 526.49 234.825C526.773 235.358 527.173 235.775 527.69 236.075C528.207 236.358 528.807 236.5 529.49 236.5C530.107 236.5 530.665 236.4 531.165 236.2C531.665 235.983 532.098 235.667 532.465 235.25L534.39 237.175C533.807 237.858 533.09 238.375 532.24 238.725C531.407 239.075 530.498 239.25 529.515 239.25ZM544.448 239L538.748 221.425H542.098L546.323 234.95H545.198L549.348 221.425H551.873L556.023 234.95H554.873L559.123 221.425H562.473L556.748 239H554.223L550.048 225.5H551.148L546.998 239H544.448ZM567.218 239.25C566.001 239.25 564.901 238.975 563.918 238.425C562.951 237.858 562.176 237.1 561.593 236.15C561.026 235.183 560.743 234.108 560.743 232.925C560.743 231.742 561.026 230.683 561.593 229.75C562.159 228.8 562.934 228.05 563.918 227.5C564.901 226.933 565.993 226.65 567.193 226.65C568.426 226.65 569.526 226.933 570.493 227.5C571.476 228.05 572.251 228.8 572.818 229.75C573.384 230.683 573.668 231.742 573.668 232.925C573.668 234.108 573.384 235.183 572.818 236.15C572.251 237.1 571.476 237.858 570.493 238.425C569.526 238.975 568.434 239.25 567.218 239.25ZM567.193 236.2C567.809 236.2 568.351 236.067 568.818 235.8C569.301 235.517 569.668 235.133 569.918 234.65C570.184 234.15 570.318 233.583 570.318 232.95C570.318 232.317 570.184 231.758 569.918 231.275C569.651 230.792 569.284 230.417 568.818 230.15C568.351 229.867 567.809 229.725 567.193 229.725C566.593 229.725 566.059 229.867 565.593 230.15C565.126 230.417 564.759 230.792 564.493 231.275C564.226 231.758 564.093 232.317 564.093 232.95C564.093 233.583 564.226 234.15 564.493 234.65C564.759 235.133 565.126 235.517 565.593 235.8C566.059 236.067 566.593 236.2 567.193 236.2ZM574.526 239V226.925H577.801V239H574.526ZM577.801 232.325L576.526 231.475C576.676 229.992 577.11 228.825 577.826 227.975C578.543 227.108 579.576 226.675 580.926 226.675C581.51 226.675 582.035 226.775 582.501 226.975C582.968 227.158 583.393 227.467 583.776 227.9L581.726 230.25C581.543 230.05 581.318 229.9 581.051 229.8C580.801 229.7 580.51 229.65 580.176 229.65C579.476 229.65 578.901 229.875 578.451 230.325C578.018 230.758 577.801 231.425 577.801 232.325ZM583.677 239V220.925H586.952V239H583.677ZM593.703 239.25C592.587 239.25 591.587 238.975 590.703 238.425C589.82 237.875 589.12 237.125 588.603 236.175C588.103 235.225 587.853 234.158 587.853 232.975C587.853 231.775 588.103 230.7 588.603 229.75C589.12 228.8 589.812 228.05 590.678 227.5C591.562 226.95 592.57 226.675 593.703 226.675C594.57 226.675 595.345 226.85 596.028 227.2C596.728 227.55 597.287 228.042 597.703 228.675C598.137 229.292 598.37 229.992 598.403 230.775V235.075C598.37 235.858 598.145 236.567 597.728 237.2C597.312 237.833 596.753 238.333 596.053 238.7C595.353 239.067 594.57 239.25 593.703 239.25ZM594.253 236.225C594.87 236.225 595.403 236.092 595.853 235.825C596.32 235.542 596.678 235.158 596.928 234.675C597.195 234.175 597.328 233.6 597.328 232.95C597.328 232.317 597.195 231.758 596.928 231.275C596.678 230.775 596.32 230.392 595.853 230.125C595.403 229.842 594.878 229.7 594.278 229.7C593.662 229.7 593.12 229.842 592.653 230.125C592.203 230.408 591.845 230.792 591.578 231.275C591.328 231.758 591.203 232.317 591.203 232.95C591.203 233.6 591.328 234.175 591.578 234.675C591.845 235.158 592.212 235.542 592.678 235.825C593.145 236.092 593.67 236.225 594.253 236.225ZM600.403 239H597.153V235.75L597.678 232.8L597.128 229.9V220.925H600.403V239ZM602.026 241.975L603.801 238.675L604.826 238.4C604.709 238.617 604.576 238.8 604.426 238.95C604.276 239.1 604.101 239.175 603.901 239.175C603.484 239.175 603.092 238.992 602.726 238.625C602.359 238.258 602.176 237.8 602.176 237.25C602.176 236.65 602.376 236.142 602.776 235.725C603.176 235.308 603.676 235.1 604.276 235.1C604.826 235.1 605.309 235.308 605.726 235.725C606.142 236.142 606.351 236.65 606.351 237.25C606.351 237.483 606.301 237.767 606.201 238.1C606.101 238.417 605.917 238.825 605.651 239.325L603.726 242.875L602.026 241.975ZM616.49 239.25C615.39 239.25 614.399 238.975 613.515 238.425C612.632 237.875 611.94 237.125 611.44 236.175C610.94 235.225 610.69 234.158 610.69 232.975C610.69 231.775 610.94 230.7 611.44 229.75C611.94 228.8 612.632 228.05 613.515 227.5C614.399 226.95 615.39 226.675 616.49 226.675C617.357 226.675 618.132 226.85 618.815 227.2C619.499 227.55 620.04 228.042 620.44 228.675C620.857 229.292 621.082 229.992 621.115 230.775V235.125C621.082 235.925 620.857 236.633 620.44 237.25C620.04 237.867 619.499 238.358 618.815 238.725C618.132 239.075 617.357 239.25 616.49 239.25ZM617.09 236.225C618.007 236.225 618.749 235.925 619.315 235.325C619.882 234.708 620.165 233.917 620.165 232.95C620.165 232.317 620.032 231.758 619.765 231.275C619.515 230.775 619.157 230.392 618.69 230.125C618.24 229.842 617.707 229.7 617.09 229.7C616.49 229.7 615.957 229.842 615.49 230.125C615.04 230.392 614.682 230.775 614.415 231.275C614.165 231.758 614.04 232.317 614.04 232.95C614.04 233.6 614.165 234.175 614.415 234.675C614.682 235.158 615.04 235.542 615.49 235.825C615.957 236.092 616.49 236.225 617.09 236.225ZM619.99 239V235.75L620.515 232.8L619.99 229.9V226.925H623.24V239H619.99ZM633.013 239V232.075C633.013 231.358 632.788 230.775 632.338 230.325C631.888 229.875 631.304 229.65 630.588 229.65C630.121 229.65 629.704 229.75 629.338 229.95C628.971 230.15 628.679 230.433 628.463 230.8C628.263 231.167 628.163 231.592 628.163 232.075L626.888 231.425C626.888 230.475 627.088 229.65 627.488 228.95C627.904 228.233 628.471 227.675 629.188 227.275C629.921 226.875 630.746 226.675 631.663 226.675C632.546 226.675 633.338 226.9 634.038 227.35C634.738 227.783 635.288 228.358 635.688 229.075C636.088 229.775 636.287 230.533 636.287 231.35V239H633.013ZM624.888 239V226.925H628.163V239H624.888ZM642.776 239.25C641.659 239.25 640.659 238.975 639.776 238.425C638.892 237.875 638.192 237.125 637.676 236.175C637.176 235.225 636.926 234.158 636.926 232.975C636.926 231.775 637.176 230.7 637.676 229.75C638.192 228.8 638.884 228.05 639.751 227.5C640.634 226.95 641.642 226.675 642.776 226.675C643.642 226.675 644.417 226.85 645.101 227.2C645.801 227.55 646.359 228.042 646.776 228.675C647.209 229.292 647.442 229.992 647.476 230.775V235.075C647.442 235.858 647.217 236.567 646.801 237.2C646.384 237.833 645.826 238.333 645.126 238.7C644.426 239.067 643.642 239.25 642.776 239.25ZM643.326 236.225C643.942 236.225 644.476 236.092 644.926 235.825C645.392 235.542 645.751 235.158 646.001 234.675C646.267 234.175 646.401 233.6 646.401 232.95C646.401 232.317 646.267 231.758 646.001 231.275C645.751 230.775 645.392 230.392 644.926 230.125C644.476 229.842 643.951 229.7 643.351 229.7C642.734 229.7 642.192 229.842 641.726 230.125C641.276 230.408 640.917 230.792 640.651 231.275C640.401 231.758 640.276 232.317 640.276 232.95C640.276 233.6 640.401 234.175 640.651 234.675C640.917 235.158 641.284 235.542 641.751 235.825C642.217 236.092 642.742 236.225 643.326 236.225ZM649.476 239H646.226V235.75L646.751 232.8L646.201 229.9V220.925H649.476V239ZM657.606 232.475V229.7H661.681C662.214 229.7 662.697 229.592 663.131 229.375C663.564 229.158 663.906 228.85 664.156 228.45C664.406 228.033 664.531 227.533 664.531 226.95C664.531 226.383 664.406 225.892 664.156 225.475C663.906 225.058 663.564 224.742 663.131 224.525C662.697 224.308 662.214 224.2 661.681 224.2H657.606V221.425H662.031C663.147 221.425 664.147 221.65 665.031 222.1C665.931 222.55 666.639 223.192 667.156 224.025C667.672 224.842 667.931 225.817 667.931 226.95C667.931 228.083 667.672 229.067 667.156 229.9C666.639 230.717 665.931 231.35 665.031 231.8C664.147 232.25 663.147 232.475 662.031 232.475H657.606ZM655.106 239V221.425H658.506V239H655.106ZM673.399 239.25C672.299 239.25 671.308 238.975 670.424 238.425C669.541 237.875 668.849 237.125 668.349 236.175C667.849 235.225 667.599 234.158 667.599 232.975C667.599 231.775 667.849 230.7 668.349 229.75C668.849 228.8 669.541 228.05 670.424 227.5C671.308 226.95 672.299 226.675 673.399 226.675C674.266 226.675 675.041 226.85 675.724 227.2C676.408 227.55 676.949 228.042 677.349 228.675C677.766 229.292 677.991 229.992 678.024 230.775V235.125C677.991 235.925 677.766 236.633 677.349 237.25C676.949 237.867 676.408 238.358 675.724 238.725C675.041 239.075 674.266 239.25 673.399 239.25ZM673.999 236.225C674.916 236.225 675.658 235.925 676.224 235.325C676.791 234.708 677.074 233.917 677.074 232.95C677.074 232.317 676.941 231.758 676.674 231.275C676.424 230.775 676.066 230.392 675.599 230.125C675.149 229.842 674.616 229.7 673.999 229.7C673.399 229.7 672.866 229.842 672.399 230.125C671.949 230.392 671.591 230.775 671.324 231.275C671.074 231.758 670.949 232.317 670.949 232.95C670.949 233.6 671.074 234.175 671.324 234.675C671.591 235.158 671.949 235.542 672.399 235.825C672.866 236.092 673.399 236.225 673.999 236.225ZM676.899 239V235.75L677.424 232.8L676.899 229.9V226.925H680.149V239H676.899ZM683.572 239V221.9H686.847V239H683.572ZM680.747 229.8V226.925H689.672V229.8H680.747ZM690.263 239V226.925H693.538V239H690.263ZM693.538 232.325L692.263 231.475C692.413 229.992 692.847 228.825 693.563 227.975C694.28 227.108 695.313 226.675 696.663 226.675C697.247 226.675 697.772 226.775 698.238 226.975C698.705 227.158 699.13 227.467 699.513 227.9L697.463 230.25C697.28 230.05 697.055 229.9 696.788 229.8C696.538 229.7 696.247 229.65 695.913 229.65C695.213 229.65 694.638 229.875 694.188 230.325C693.755 230.758 693.538 231.425 693.538 232.325ZM699.414 239V226.925H702.714V239H699.414ZM701.064 224.975C700.531 224.975 700.089 224.8 699.739 224.45C699.389 224.083 699.214 223.633 699.214 223.1C699.214 222.583 699.389 222.142 699.739 221.775C700.089 221.408 700.531 221.225 701.064 221.225C701.614 221.225 702.056 221.408 702.389 221.775C702.739 222.142 702.914 222.583 702.914 223.1C702.914 223.633 702.739 224.083 702.389 224.45C702.056 224.8 701.614 224.975 701.064 224.975ZM710.065 239.25C708.832 239.25 707.723 238.975 706.74 238.425C705.757 237.875 704.982 237.125 704.415 236.175C703.848 235.225 703.565 234.158 703.565 232.975C703.565 231.775 703.848 230.7 704.415 229.75C704.982 228.8 705.757 228.05 706.74 227.5C707.74 226.933 708.848 226.65 710.065 226.65C711.015 226.65 711.89 226.825 712.69 227.175C713.49 227.525 714.182 228.025 714.765 228.675L712.665 230.8C712.348 230.45 711.965 230.183 711.515 230C711.082 229.817 710.598 229.725 710.065 229.725C709.465 229.725 708.923 229.867 708.44 230.15C707.973 230.417 707.598 230.792 707.315 231.275C707.048 231.742 706.915 232.3 706.915 232.95C706.915 233.583 707.048 234.15 707.315 234.65C707.598 235.133 707.973 235.517 708.44 235.8C708.923 236.067 709.465 236.2 710.065 236.2C710.615 236.2 711.107 236.108 711.54 235.925C711.99 235.725 712.373 235.442 712.69 235.075L714.815 237.2C714.198 237.867 713.49 238.375 712.69 238.725C711.89 239.075 711.015 239.25 710.065 239.25ZM720.926 239.25C719.66 239.25 718.535 238.983 717.551 238.45C716.568 237.9 715.785 237.15 715.201 236.2C714.635 235.25 714.351 234.167 714.351 232.95C714.351 231.75 714.626 230.683 715.176 229.75C715.743 228.8 716.51 228.05 717.476 227.5C718.443 226.933 719.518 226.65 720.701 226.65C721.868 226.65 722.893 226.917 723.776 227.45C724.676 227.967 725.376 228.683 725.876 229.6C726.393 230.5 726.651 231.525 726.651 232.675C726.651 232.892 726.635 233.117 726.601 233.35C726.585 233.567 726.543 233.817 726.476 234.1L716.326 234.125V231.675L724.951 231.65L723.626 232.675C723.593 231.958 723.46 231.358 723.226 230.875C723.01 230.392 722.685 230.025 722.251 229.775C721.835 229.508 721.318 229.375 720.701 229.375C720.051 229.375 719.485 229.525 719.001 229.825C718.518 230.108 718.143 230.517 717.876 231.05C717.626 231.567 717.501 232.183 717.501 232.9C717.501 233.633 717.635 234.275 717.901 234.825C718.185 235.358 718.585 235.775 719.101 236.075C719.618 236.358 720.218 236.5 720.901 236.5C721.518 236.5 722.076 236.4 722.576 236.2C723.076 235.983 723.51 235.667 723.876 235.25L725.801 237.175C725.218 237.858 724.501 238.375 723.651 238.725C722.818 239.075 721.91 239.25 720.926 239.25ZM742.559 239L734.359 230C733.743 229.317 733.284 228.667 732.984 228.05C732.684 227.417 732.534 226.725 732.534 225.975C732.534 225.092 732.751 224.283 733.184 223.55C733.634 222.817 734.243 222.233 735.009 221.8C735.793 221.367 736.684 221.15 737.684 221.15C738.468 221.15 739.168 221.275 739.784 221.525C740.401 221.758 740.934 222.067 741.384 222.45C741.851 222.833 742.226 223.242 742.509 223.675L740.259 225.775C739.909 225.292 739.534 224.917 739.134 224.65C738.734 224.367 738.268 224.225 737.734 224.225C737.168 224.225 736.693 224.392 736.309 224.725C735.926 225.058 735.734 225.475 735.734 225.975C735.734 226.442 735.834 226.842 736.034 227.175C736.234 227.492 736.509 227.858 736.859 228.275L746.434 239H742.559ZM736.684 239.25C735.484 239.25 734.434 239.017 733.534 238.55C732.651 238.083 731.959 237.45 731.459 236.65C730.976 235.833 730.734 234.908 730.734 233.875C730.734 232.808 731.018 231.85 731.584 231C732.168 230.15 733.026 229.458 734.159 228.925L735.634 231.025C735.068 231.292 734.634 231.65 734.334 232.1C734.051 232.533 733.909 233.075 733.909 233.725C733.909 234.225 734.026 234.667 734.259 235.05C734.493 235.417 734.826 235.708 735.259 235.925C735.693 236.125 736.193 236.225 736.759 236.225C737.476 236.225 738.076 236.075 738.559 235.775C739.043 235.475 739.426 235.092 739.709 234.625L741.909 237.025C741.576 237.425 741.143 237.792 740.609 238.125C740.076 238.458 739.476 238.733 738.809 238.95C738.143 239.15 737.434 239.25 736.684 239.25ZM752.332 232.475V229.7H756.407C756.941 229.7 757.424 229.592 757.857 229.375C758.291 229.158 758.632 228.85 758.882 228.45C759.132 228.033 759.257 227.533 759.257 226.95C759.257 226.383 759.132 225.892 758.882 225.475C758.632 225.058 758.291 224.742 757.857 224.525C757.424 224.308 756.941 224.2 756.407 224.2H752.332V221.425H756.757C757.874 221.425 758.874 221.65 759.757 222.1C760.657 222.55 761.366 223.192 761.882 224.025C762.399 224.842 762.657 225.817 762.657 226.95C762.657 228.083 762.399 229.067 761.882 229.9C761.366 230.717 760.657 231.35 759.757 231.8C758.874 232.25 757.874 232.475 756.757 232.475H752.332ZM749.832 239V221.425H753.232V239H749.832ZM768.126 239.25C767.026 239.25 766.034 238.975 765.151 238.425C764.268 237.875 763.576 237.125 763.076 236.175C762.576 235.225 762.326 234.158 762.326 232.975C762.326 231.775 762.576 230.7 763.076 229.75C763.576 228.8 764.268 228.05 765.151 227.5C766.034 226.95 767.026 226.675 768.126 226.675C768.993 226.675 769.768 226.85 770.451 227.2C771.134 227.55 771.676 228.042 772.076 228.675C772.493 229.292 772.718 229.992 772.751 230.775V235.125C772.718 235.925 772.493 236.633 772.076 237.25C771.676 237.867 771.134 238.358 770.451 238.725C769.768 239.075 768.993 239.25 768.126 239.25ZM768.726 236.225C769.643 236.225 770.384 235.925 770.951 235.325C771.518 234.708 771.801 233.917 771.801 232.95C771.801 232.317 771.668 231.758 771.401 231.275C771.151 230.775 770.793 230.392 770.326 230.125C769.876 229.842 769.343 229.7 768.726 229.7C768.126 229.7 767.593 229.842 767.126 230.125C766.676 230.392 766.318 230.775 766.051 231.275C765.801 231.758 765.676 232.317 765.676 232.95C765.676 233.6 765.801 234.175 766.051 234.675C766.318 235.158 766.676 235.542 767.126 235.825C767.593 236.092 768.126 236.225 768.726 236.225ZM771.626 239V235.75L772.151 232.8L771.626 229.9V226.925H774.876V239H771.626ZM778.298 239V221.9H781.573V239H778.298ZM775.473 229.8V226.925H784.398V229.8H775.473ZM784.99 239V226.925H788.265V239H784.99ZM788.265 232.325L786.99 231.475C787.14 229.992 787.573 228.825 788.29 227.975C789.007 227.108 790.04 226.675 791.39 226.675C791.973 226.675 792.498 226.775 792.965 226.975C793.432 227.158 793.857 227.467 794.24 227.9L792.19 230.25C792.007 230.05 791.782 229.9 791.515 229.8C791.265 229.7 790.973 229.65 790.64 229.65C789.94 229.65 789.365 229.875 788.915 230.325C788.482 230.758 788.265 231.425 788.265 232.325ZM794.14 239V226.925H797.44V239H794.14ZM795.79 224.975C795.257 224.975 794.815 224.8 794.465 224.45C794.115 224.083 793.94 223.633 793.94 223.1C793.94 222.583 794.115 222.142 794.465 221.775C794.815 221.408 795.257 221.225 795.79 221.225C796.34 221.225 796.782 221.408 797.115 221.775C797.465 222.142 797.64 222.583 797.64 223.1C797.64 223.633 797.465 224.083 797.115 224.45C796.782 224.8 796.34 224.975 795.79 224.975ZM804.792 239.25C803.558 239.25 802.45 238.975 801.467 238.425C800.483 237.875 799.708 237.125 799.142 236.175C798.575 235.225 798.292 234.158 798.292 232.975C798.292 231.775 798.575 230.7 799.142 229.75C799.708 228.8 800.483 228.05 801.467 227.5C802.467 226.933 803.575 226.65 804.792 226.65C805.742 226.65 806.617 226.825 807.417 227.175C808.217 227.525 808.908 228.025 809.492 228.675L807.392 230.8C807.075 230.45 806.692 230.183 806.242 230C805.808 229.817 805.325 229.725 804.792 229.725C804.192 229.725 803.65 229.867 803.167 230.15C802.7 230.417 802.325 230.792 802.042 231.275C801.775 231.742 801.642 232.3 801.642 232.95C801.642 233.583 801.775 234.15 802.042 234.65C802.325 235.133 802.7 235.517 803.167 235.8C803.65 236.067 804.192 236.2 804.792 236.2C805.342 236.2 805.833 236.108 806.267 235.925C806.717 235.725 807.1 235.442 807.417 235.075L809.542 237.2C808.925 237.867 808.217 238.375 807.417 238.725C806.617 239.075 805.742 239.25 804.792 239.25ZM810.146 239V226.925H813.446V239H810.146ZM811.796 224.975C811.263 224.975 810.821 224.8 810.471 224.45C810.121 224.083 809.946 223.633 809.946 223.1C809.946 222.583 810.121 222.142 810.471 221.775C810.821 221.408 811.263 221.225 811.796 221.225C812.346 221.225 812.788 221.408 813.121 221.775C813.471 222.142 813.646 222.583 813.646 223.1C813.646 223.633 813.471 224.083 813.121 224.45C812.788 224.8 812.346 224.975 811.796 224.975ZM820.147 239.25C819.047 239.25 818.056 238.975 817.172 238.425C816.289 237.875 815.597 237.125 815.097 236.175C814.597 235.225 814.347 234.158 814.347 232.975C814.347 231.775 814.597 230.7 815.097 229.75C815.597 228.8 816.289 228.05 817.172 227.5C818.056 226.95 819.047 226.675 820.147 226.675C821.014 226.675 821.789 226.85 822.472 227.2C823.156 227.55 823.697 228.042 824.097 228.675C824.514 229.292 824.739 229.992 824.772 230.775V235.125C824.739 235.925 824.514 236.633 824.097 237.25C823.697 237.867 823.156 238.358 822.472 238.725C821.789 239.075 821.014 239.25 820.147 239.25ZM820.747 236.225C821.664 236.225 822.406 235.925 822.972 235.325C823.539 234.708 823.822 233.917 823.822 232.95C823.822 232.317 823.689 231.758 823.422 231.275C823.172 230.775 822.814 230.392 822.347 230.125C821.897 229.842 821.364 229.7 820.747 229.7C820.147 229.7 819.614 229.842 819.147 230.125C818.697 230.392 818.339 230.775 818.072 231.275C817.822 231.758 817.697 232.317 817.697 232.95C817.697 233.6 817.822 234.175 818.072 234.675C818.339 235.158 818.697 235.542 819.147 235.825C819.614 236.092 820.147 236.225 820.747 236.225ZM823.647 239V235.75L824.172 232.8L823.647 229.9V226.925H826.897V239H823.647ZM833.953 239V221.9H837.228V239H833.953ZM831.128 229.8V226.925H840.053V229.8H831.128ZM848.769 239V232.075C848.769 231.358 848.544 230.775 848.094 230.325C847.644 229.875 847.061 229.65 846.344 229.65C845.878 229.65 845.461 229.75 845.094 229.95C844.728 230.15 844.436 230.433 844.219 230.8C844.019 231.167 843.919 231.592 843.919 232.075L842.644 231.425C842.644 230.475 842.844 229.65 843.244 228.95C843.644 228.233 844.194 227.675 844.894 227.275C845.611 226.875 846.428 226.675 847.344 226.675C848.261 226.675 849.069 226.875 849.769 227.275C850.486 227.675 851.044 228.225 851.444 228.925C851.844 229.625 852.044 230.433 852.044 231.35V239H848.769ZM840.644 239V220.925H843.919V239H840.644ZM859.207 239.25C857.941 239.25 856.816 238.983 855.832 238.45C854.849 237.9 854.066 237.15 853.482 236.2C852.916 235.25 852.632 234.167 852.632 232.95C852.632 231.75 852.907 230.683 853.457 229.75C854.024 228.8 854.791 228.05 855.757 227.5C856.724 226.933 857.799 226.65 858.982 226.65C860.149 226.65 861.174 226.917 862.057 227.45C862.957 227.967 863.657 228.683 864.157 229.6C864.674 230.5 864.932 231.525 864.932 232.675C864.932 232.892 864.916 233.117 864.882 233.35C864.866 233.567 864.824 233.817 864.757 234.1L854.607 234.125V231.675L863.232 231.65L861.907 232.675C861.874 231.958 861.741 231.358 861.507 230.875C861.291 230.392 860.966 230.025 860.532 229.775C860.116 229.508 859.599 229.375 858.982 229.375C858.332 229.375 857.766 229.525 857.282 229.825C856.799 230.108 856.424 230.517 856.157 231.05C855.907 231.567 855.782 232.183 855.782 232.9C855.782 233.633 855.916 234.275 856.182 234.825C856.466 235.358 856.866 235.775 857.382 236.075C857.899 236.358 858.499 236.5 859.182 236.5C859.799 236.5 860.357 236.4 860.857 236.2C861.357 235.983 861.791 235.667 862.157 235.25L864.082 237.175C863.499 237.858 862.782 238.375 861.932 238.725C861.099 239.075 860.191 239.25 859.207 239.25ZM872.191 232.475V229.7H876.266C876.799 229.7 877.282 229.592 877.716 229.375C878.149 229.158 878.491 228.85 878.741 228.45C878.991 228.033 879.116 227.533 879.116 226.95C879.116 226.383 878.991 225.892 878.741 225.475C878.491 225.058 878.149 224.742 877.716 224.525C877.282 224.308 876.799 224.2 876.266 224.2H872.191V221.425H876.616C877.732 221.425 878.732 221.65 879.616 222.1C880.516 222.55 881.224 223.192 881.741 224.025C882.257 224.842 882.516 225.817 882.516 226.95C882.516 228.083 882.257 229.067 881.741 229.9C881.224 230.717 880.516 231.35 879.616 231.8C878.732 232.25 877.732 232.475 876.616 232.475H872.191ZM869.691 239V221.425H873.091V239H869.691ZM888.609 239.25C887.393 239.25 886.293 238.975 885.309 238.425C884.343 237.858 883.568 237.1 882.984 236.15C882.418 235.183 882.134 234.108 882.134 232.925C882.134 231.742 882.418 230.683 882.984 229.75C883.551 228.8 884.326 228.05 885.309 227.5C886.293 226.933 887.384 226.65 888.584 226.65C889.818 226.65 890.918 226.933 891.884 227.5C892.868 228.05 893.643 228.8 894.209 229.75C894.776 230.683 895.059 231.742 895.059 232.925C895.059 234.108 894.776 235.183 894.209 236.15C893.643 237.1 892.868 237.858 891.884 238.425C890.918 238.975 889.826 239.25 888.609 239.25ZM888.584 236.2C889.201 236.2 889.743 236.067 890.209 235.8C890.693 235.517 891.059 235.133 891.309 234.65C891.576 234.15 891.709 233.583 891.709 232.95C891.709 232.317 891.576 231.758 891.309 231.275C891.043 230.792 890.676 230.417 890.209 230.15C889.743 229.867 889.201 229.725 888.584 229.725C887.984 229.725 887.451 229.867 886.984 230.15C886.518 230.417 886.151 230.792 885.884 231.275C885.618 231.758 885.484 232.317 885.484 232.95C885.484 233.583 885.618 234.15 885.884 234.65C886.151 235.133 886.518 235.517 886.984 235.8C887.451 236.067 887.984 236.2 888.584 236.2ZM898.874 239L894.349 226.925H897.649L900.599 235.7L899.599 235.725L902.624 226.925H904.999L908.024 235.725L907.024 235.7L909.974 226.925H913.274L908.774 239H906.399L903.349 230.65H904.274L901.224 239H898.874ZM919.12 239.25C917.853 239.25 916.728 238.983 915.745 238.45C914.761 237.9 913.978 237.15 913.395 236.2C912.828 235.25 912.545 234.167 912.545 232.95C912.545 231.75 912.82 230.683 913.37 229.75C913.936 228.8 914.703 228.05 915.67 227.5C916.636 226.933 917.711 226.65 918.895 226.65C920.061 226.65 921.086 226.917 921.97 227.45C922.87 227.967 923.57 228.683 924.07 229.6C924.586 230.5 924.845 231.525 924.845 232.675C924.845 232.892 924.828 233.117 924.795 233.35C924.778 233.567 924.736 233.817 924.67 234.1L914.52 234.125V231.675L923.145 231.65L921.82 232.675C921.786 231.958 921.653 231.358 921.42 230.875C921.203 230.392 920.878 230.025 920.445 229.775C920.028 229.508 919.511 229.375 918.895 229.375C918.245 229.375 917.678 229.525 917.195 229.825C916.711 230.108 916.336 230.517 916.07 231.05C915.82 231.567 915.695 232.183 915.695 232.9C915.695 233.633 915.828 234.275 916.095 234.825C916.378 235.358 916.778 235.775 917.295 236.075C917.811 236.358 918.411 236.5 919.095 236.5C919.711 236.5 920.27 236.4 920.77 236.2C921.27 235.983 921.703 235.667 922.07 235.25L923.995 237.175C923.411 237.858 922.695 238.375 921.845 238.725C921.011 239.075 920.103 239.25 919.12 239.25ZM925.62 239V226.925H928.895V239H925.62ZM928.895 232.325L927.62 231.475C927.77 229.992 928.203 228.825 928.92 227.975C929.637 227.108 930.67 226.675 932.02 226.675C932.603 226.675 933.128 226.775 933.595 226.975C934.062 227.158 934.487 227.467 934.87 227.9L932.82 230.25C932.637 230.05 932.412 229.9 932.145 229.8C931.895 229.7 931.603 229.65 931.27 229.65C930.57 229.65 929.995 229.875 929.545 230.325C929.112 230.758 928.895 231.425 928.895 232.325ZM936.468 239V225.625C936.468 224.658 936.676 223.808 937.093 223.075C937.51 222.325 938.101 221.733 938.868 221.3C939.635 220.867 940.535 220.65 941.568 220.65C942.351 220.65 943.026 220.783 943.593 221.05C944.16 221.317 944.668 221.683 945.118 222.15L943.043 224.25C942.86 224.067 942.66 223.925 942.443 223.825C942.226 223.725 941.951 223.675 941.618 223.675C941.018 223.675 940.551 223.842 940.218 224.175C939.901 224.492 939.743 224.95 939.743 225.55V239H936.468ZM933.668 229.8V226.925H943.318V229.8H933.668ZM949.242 239.25C948.175 239.25 947.225 239.025 946.392 238.575C945.575 238.125 944.933 237.5 944.467 236.7C944 235.9 943.767 234.975 943.767 233.925V226.925H947.067V233.85C947.067 234.35 947.15 234.783 947.317 235.15C947.483 235.5 947.733 235.767 948.067 235.95C948.4 236.133 948.792 236.225 949.242 236.225C949.925 236.225 950.458 236.017 950.842 235.6C951.225 235.183 951.417 234.6 951.417 233.85V226.925H954.692V233.925C954.692 234.992 954.458 235.925 953.992 236.725C953.542 237.525 952.9 238.15 952.067 238.6C951.25 239.033 950.308 239.25 949.242 239.25ZM956.05 239V220.925H959.325V239H956.05ZM967.459 239V236.225H972.034C972.851 236.225 973.484 235.975 973.934 235.475C974.401 234.975 974.634 234.383 974.634 233.7C974.634 233.233 974.534 232.808 974.334 232.425C974.134 232.042 973.834 231.742 973.434 231.525C973.051 231.292 972.584 231.175 972.034 231.175H967.459V228.425H971.659C972.359 228.425 972.918 228.25 973.334 227.9C973.768 227.55 973.984 227.025 973.984 226.325C973.984 225.608 973.768 225.075 973.334 224.725C972.918 224.375 972.359 224.2 971.659 224.2H967.459V221.425H972.059C973.226 221.425 974.201 221.642 974.984 222.075C975.784 222.492 976.384 223.05 976.784 223.75C977.184 224.433 977.384 225.183 977.384 226C977.384 227 977.076 227.867 976.459 228.6C975.859 229.317 974.976 229.85 973.809 230.2L973.959 229.1C975.259 229.467 976.259 230.075 976.959 230.925C977.676 231.758 978.034 232.767 978.034 233.95C978.034 234.883 977.801 235.733 977.334 236.5C976.884 237.25 976.218 237.858 975.334 238.325C974.468 238.775 973.409 239 972.159 239H967.459ZM964.959 239V221.425H968.334V239H964.959ZM984.181 239.25C983.081 239.25 982.089 238.975 981.206 238.425C980.322 237.875 979.631 237.125 979.131 236.175C978.631 235.225 978.381 234.158 978.381 232.975C978.381 231.775 978.631 230.7 979.131 229.75C979.631 228.8 980.322 228.05 981.206 227.5C982.089 226.95 983.081 226.675 984.181 226.675C985.047 226.675 985.822 226.85 986.506 227.2C987.189 227.55 987.731 228.042 988.131 228.675C988.547 229.292 988.772 229.992 988.806 230.775V235.125C988.772 235.925 988.547 236.633 988.131 237.25C987.731 237.867 987.189 238.358 986.506 238.725C985.822 239.075 985.047 239.25 984.181 239.25ZM984.781 236.225C985.697 236.225 986.439 235.925 987.006 235.325C987.572 234.708 987.856 233.917 987.856 232.95C987.856 232.317 987.722 231.758 987.456 231.275C987.206 230.775 986.847 230.392 986.381 230.125C985.931 229.842 985.397 229.7 984.781 229.7C984.181 229.7 983.647 229.842 983.181 230.125C982.731 230.392 982.372 230.775 982.106 231.275C981.856 231.758 981.731 232.317 981.731 232.95C981.731 233.6 981.856 234.175 982.106 234.675C982.372 235.158 982.731 235.542 983.181 235.825C983.647 236.092 984.181 236.225 984.781 236.225ZM987.681 239V235.75L988.206 232.8L987.681 229.9V226.925H990.931V239H987.681ZM999.278 239.25C998.411 239.25 997.628 239.067 996.928 238.7C996.228 238.333 995.67 237.833 995.253 237.2C994.836 236.567 994.611 235.858 994.578 235.075V230.775C994.611 229.992 994.836 229.292 995.253 228.675C995.686 228.042 996.253 227.55 996.953 227.2C997.653 226.85 998.428 226.675 999.278 226.675C1000.39 226.675 1001.39 226.95 1002.28 227.5C1003.16 228.05 1003.85 228.8 1004.35 229.75C1004.87 230.7 1005.13 231.775 1005.13 232.975C1005.13 234.158 1004.87 235.225 1004.35 236.175C1003.85 237.125 1003.16 237.875 1002.28 238.425C1001.39 238.975 1000.39 239.25 999.278 239.25ZM992.578 239V220.925H995.853V229.9L995.303 232.8L995.828 235.75V239H992.578ZM998.728 236.225C999.328 236.225 999.853 236.092 1000.3 235.825C1000.77 235.542 1001.13 235.158 1001.38 234.675C1001.64 234.175 1001.78 233.6 1001.78 232.95C1001.78 232.317 1001.64 231.758 1001.38 231.275C1001.13 230.775 1000.77 230.392 1000.3 230.125C999.836 229.842 999.303 229.7 998.703 229.7C998.103 229.7 997.57 229.842 997.103 230.125C996.653 230.392 996.295 230.775 996.028 231.275C995.778 231.758 995.653 232.317 995.653 232.95C995.653 233.6 995.778 234.175 996.028 234.675C996.295 235.158 996.661 235.542 997.128 235.825C997.595 236.092 998.128 236.225 998.728 236.225ZM1006.03 239V226.925H1009.33V239H1006.03ZM1007.68 224.975C1007.14 224.975 1006.7 224.8 1006.35 224.45C1006 224.083 1005.83 223.633 1005.83 223.1C1005.83 222.583 1006 222.142 1006.35 221.775C1006.7 221.408 1007.14 221.225 1007.68 221.225C1008.23 221.225 1008.67 221.408 1009 221.775C1009.35 222.142 1009.53 222.583 1009.53 223.1C1009.53 223.633 1009.35 224.083 1009 224.45C1008.67 224.8 1008.23 224.975 1007.68 224.975ZM1016.75 239.25C1015.48 239.25 1014.36 238.983 1013.38 238.45C1012.39 237.9 1011.61 237.15 1011.03 236.2C1010.46 235.25 1010.18 234.167 1010.18 232.95C1010.18 231.75 1010.45 230.683 1011 229.75C1011.57 228.8 1012.33 228.05 1013.3 227.5C1014.27 226.933 1015.34 226.65 1016.53 226.65C1017.69 226.65 1018.72 226.917 1019.6 227.45C1020.5 227.967 1021.2 228.683 1021.7 229.6C1022.22 230.5 1022.48 231.525 1022.48 232.675C1022.48 232.892 1022.46 233.117 1022.43 233.35C1022.41 233.567 1022.37 233.817 1022.3 234.1L1012.15 234.125V231.675L1020.78 231.65L1019.45 232.675C1019.42 231.958 1019.28 231.358 1019.05 230.875C1018.83 230.392 1018.51 230.025 1018.08 229.775C1017.66 229.508 1017.14 229.375 1016.53 229.375C1015.88 229.375 1015.31 229.525 1014.83 229.825C1014.34 230.108 1013.97 230.517 1013.7 231.05C1013.45 231.567 1013.33 232.183 1013.33 232.9C1013.33 233.633 1013.46 234.275 1013.73 234.825C1014.01 235.358 1014.41 235.775 1014.93 236.075C1015.44 236.358 1016.04 236.5 1016.73 236.5C1017.34 236.5 1017.9 236.4 1018.4 236.2C1018.9 235.983 1019.33 235.667 1019.7 235.25L1021.63 237.175C1021.04 237.858 1020.33 238.375 1019.48 238.725C1018.64 239.075 1017.73 239.25 1016.75 239.25ZM1027.4 239.275C1026.72 239.275 1026.04 239.183 1025.38 239C1024.73 238.817 1024.13 238.567 1023.58 238.25C1023.03 237.917 1022.55 237.517 1022.15 237.05L1024.1 235.075C1024.52 235.542 1025 235.892 1025.55 236.125C1026.1 236.358 1026.71 236.475 1027.38 236.475C1027.91 236.475 1028.31 236.4 1028.58 236.25C1028.86 236.1 1029 235.875 1029 235.575C1029 235.242 1028.85 234.983 1028.55 234.8C1028.27 234.617 1027.89 234.467 1027.43 234.35C1026.96 234.217 1026.47 234.075 1025.95 233.925C1025.45 233.758 1024.97 233.55 1024.5 233.3C1024.04 233.033 1023.65 232.675 1023.35 232.225C1023.07 231.758 1022.93 231.158 1022.93 230.425C1022.93 229.658 1023.11 228.992 1023.48 228.425C1023.86 227.858 1024.4 227.417 1025.1 227.1C1025.8 226.783 1026.63 226.625 1027.58 226.625C1028.58 226.625 1029.48 226.8 1030.28 227.15C1031.09 227.5 1031.77 228.025 1032.3 228.725L1030.33 230.7C1029.96 230.25 1029.54 229.925 1029.08 229.725C1028.63 229.525 1028.14 229.425 1027.6 229.425C1027.12 229.425 1026.74 229.5 1026.48 229.65C1026.23 229.8 1026.1 230.008 1026.1 230.275C1026.1 230.575 1026.24 230.808 1026.53 230.975C1026.83 231.142 1027.21 231.292 1027.68 231.425C1028.14 231.542 1028.63 231.683 1029.13 231.85C1029.64 232 1030.13 232.217 1030.58 232.5C1031.04 232.783 1031.42 233.158 1031.7 233.625C1032 234.092 1032.15 234.692 1032.15 235.425C1032.15 236.608 1031.73 237.55 1030.88 238.25C1030.03 238.933 1028.87 239.275 1027.4 239.275Z" fill="black"/>
<rect x="26.7559" width="6.48647" height="16.2162" rx="3.24324" fill="black"/>
<rect x="26.7556" y="43.7837" width="6.48647" height="16.2162" rx="3.24324" fill="black"/>
<rect x="59.999" y="26.7563" width="6.48647" height="16.2162" rx="3.24324" transform="rotate(90 59.999 26.7563)" fill="black"/>
<rect x="16.2163" y="26.7563" width="6.48647" height="16.2162" rx="3.24324" transform="rotate(90 16.2163 26.7563)" fill="black"/>
<rect x="53.5061" y="48.9199" width="6.48647" height="16.2162" rx="3.24324" transform="rotate(135 53.5061 48.9199)" fill="black"/>
<rect x="49.3474" y="44.7603" width="6.48647" height="54.1179" rx="3.24324" transform="rotate(135 49.3474 44.7603)" fill="black"/>
<rect x="48.9211" y="6.49365" width="6.48647" height="16.2162" rx="3.24324" transform="rotate(45 48.9211 6.49365)" fill="black"/>
<rect x="46.5891" y="25.8774" width="6.48647" height="29.1174" rx="3.24324" transform="rotate(45 46.5891 25.8774)" fill="black"/>
<rect x="17.9604" y="37.4531" width="6.48647" height="16.2162" rx="3.24324" transform="rotate(45 17.9604 37.4531)" fill="black"/>
</svg>
