<svg width="519" height="126" viewBox="0 0 519 126" fill="none" xmlns="http://www.w3.org/2000/svg">
<path fill-rule="evenodd" clip-rule="evenodd" d="M10.5201 9.06631H0V0.381409H29.7684V9.06631H19.2478V125.9H10.5201V9.06631Z" fill="#F2F2F2"/>
<path fill-rule="evenodd" clip-rule="evenodd" d="M43.2005 67.483V125.9H34.4729V0.381409H43.2005V58.7977H55.5136V0.381409H64.2412V125.9H55.5136V67.483H43.2005Z" fill="#F2F2F2"/>
<path fill-rule="evenodd" clip-rule="evenodd" d="M359.23 9.06656H356.435V0.381287H370.792V9.06656H367.957V117.265H370.792V125.95H356.435V117.265H359.23V9.06656Z" fill="#F2F2F2"/>
<path fill-rule="evenodd" clip-rule="evenodd" d="M121.511 58.7985V9.06594C121.511 6.76259 122.427 4.55355 124.057 2.92496C125.687 1.29637 127.898 0.381409 130.203 0.381409H146.778C147.972 0.381409 149.117 0.855242 149.961 1.6986C150.805 2.54195 151.28 3.68592 151.28 4.87878V14.7254H142.587V9.06631H130.239V58.7977H142.587C144.893 58.7977 147.104 59.7131 148.734 61.3416C150.363 62.9702 151.28 65.1793 151.28 67.4822V117.215C151.28 119.519 150.363 121.728 148.734 123.356C147.104 124.985 144.893 125.9 142.588 125.9H130.204V125.85H125.863C123.459 125.85 121.511 123.903 121.511 121.502V111.505H130.204V117.214H142.552V67.483H130.203C127.898 67.483 125.687 66.5681 124.057 64.9395C122.427 63.3109 121.511 61.1019 121.511 58.7985Z" fill="#F2F2F2"/>
<path fill-rule="evenodd" clip-rule="evenodd" d="M164.412 125.85H155.684V0.331024H164.412V115.839L171.642 111.698V0H180.369V111.576L187.812 115.839V0.331024H196.539V125.85H187.812L180.369 121.587V125.85H171.642V121.709L164.412 125.85Z" fill="#F2F2F2"/>
<path fill-rule="evenodd" clip-rule="evenodd" d="M68.856 125.9V0.381409H98.6243V9.06631H77.5836V58.7977H98.6243V67.483H77.5836V117.214H98.6243V125.9H68.856Z" fill="#F2F2F2"/>
<path fill-rule="evenodd" clip-rule="evenodd" d="M235.411 125.9V0.381409H260.834C263.234 0.381409 265.179 2.32525 265.179 4.72367V54.4743C265.179 56.8624 263.242 58.7981 260.852 58.7981C263.244 58.8081 265.179 60.7485 265.179 63.1404V125.9H256.452V71.8434C256.452 69.4465 254.504 67.5008 252.106 67.5008H256.452V67.483H244.139V125.9H235.411ZM252.106 9.06631H244.139V58.7977H247.724C252.541 58.7977 256.452 54.8904 256.452 50.0774V13.409C256.452 11.0121 254.504 9.06631 252.106 9.06631Z" fill="#F2F2F2"/>
<path fill-rule="evenodd" clip-rule="evenodd" d="M200.962 117.215V9.06594C200.962 6.76259 201.877 4.55355 203.507 2.92496C205.137 1.29637 207.348 0.381409 209.653 0.381409H222.038C224.343 0.381409 226.554 1.29637 228.184 2.92496C229.814 4.55355 230.73 6.76259 230.73 9.06594V117.215C230.73 119.519 229.814 121.728 228.184 123.356C226.554 124.985 224.343 125.9 222.038 125.9H209.653C207.348 125.9 205.137 124.985 203.507 123.356C201.877 121.728 200.962 119.519 200.962 117.215ZM217.656 9.06631H214.036C211.637 9.06631 209.689 11.0121 209.689 13.409V112.872C209.689 115.269 211.637 117.214 214.036 117.214H217.656C220.055 117.214 222.002 115.269 222.002 112.872V13.409C222.002 11.0121 220.055 9.06631 217.656 9.06631Z" fill="#F2F2F2"/>
<path fill-rule="evenodd" clip-rule="evenodd" d="M269.727 125.9V0.381409H290.768C290.768 0.381409 292.639 0.396795 294.603 1.60274C295.363 2.06965 297.156 3.28368 298.217 5.94115C299.143 8.26183 299.496 11.6383 299.496 14.195V112.036C299.496 114.592 299.143 117.969 298.217 120.29C297.156 122.947 295.363 124.161 294.603 124.628C292.639 125.834 290.768 125.85 290.768 125.85V125.9H269.727ZM282.041 9.06631H278.455V117.214H282.041C286.857 117.214 290.768 113.307 290.768 108.494V17.7866C290.768 12.974 286.857 9.06631 282.041 9.06631Z" fill="#F2F2F2"/>
<path fill-rule="evenodd" clip-rule="evenodd" d="M383.967 49.3178V125.95H375.24V0.431641H386.509L396.28 73.9514V0.431641H405.008V125.95H403.191L394.159 126L383.967 49.3178Z" fill="#F2F2F2"/>
<path fill-rule="evenodd" clip-rule="evenodd" d="M443.669 125.95V0.381287H454.29L464.155 85.8685L474.02 0.381287H484.525V125.9H475.797V62.902L468.556 125.9H459.76V125.895L459.755 125.9L452.397 61.8912V125.95H443.669Z" fill="#F2F2F2"/>
<path fill-rule="evenodd" clip-rule="evenodd" d="M489.232 58.8479L500.654 0.431641H507.613L519 58.8479V125.95H510.272V67.5333H497.959V125.95H489.232V58.8479ZM510.518 58.8479L504.116 19.0359L497.898 58.8479H510.518Z" fill="#F2F2F2"/>
<path fill-rule="evenodd" clip-rule="evenodd" d="M409.416 125.95V0.431641H439.184V9.11654H418.144V58.8479H439.184V67.5333H418.144V117.265H439.184V125.95H409.416Z" fill="#F2F2F2"/>
<path fill-rule="evenodd" clip-rule="evenodd" d="M322.277 117.265V9.11617C322.277 6.81282 323.193 4.60378 324.823 2.97519C326.453 1.3466 328.664 0.431641 330.969 0.431641H352.045V9.11654H335.351C332.953 9.11654 331.005 11.0623 331.005 13.4592V112.922C331.005 115.319 332.953 117.265 335.351 117.265H352.045V125.95H330.969C328.664 125.95 326.453 125.035 324.823 123.406C323.193 121.778 322.277 119.569 322.277 117.265Z" fill="#F2F2F2"/>
</svg>
