<svg width="52" height="44" viewBox="0 0 52 44" fill="none" xmlns="http://www.w3.org/2000/svg">
<path d="M26.795 4.88421C26.795 7.48696 24.7617 9.59691 22.2535 9.59691C19.7453 9.59691 17.7121 7.48696 17.7121 4.88421C17.7121 2.28145 19.7453 0.171504 22.2535 0.171504C24.7617 0.171504 26.795 2.28145 26.795 4.88421Z" fill="#FE621D"/>
<path d="M30.1151 25.1723C30.1151 17.5985 30.1151 19.6899 30.1151 17.5985C31.542 17.5985 32.6988 19.294 32.6988 21.3854C32.6988 23.4768 31.542 25.1723 30.1151 25.1723Z" fill="#FE621D"/>
<path fill-rule="evenodd" clip-rule="evenodd" d="M0.479718 19.2104C-0.372855 17.9236 -0.0586972 16.1631 1.18141 15.2784L8.44773 10.0944C9.68784 9.20972 11.3843 9.53572 12.2369 10.8226C13.0894 12.1095 12.7753 13.8699 11.5352 14.7546L4.26885 19.9386C3.02874 20.8233 1.33229 20.4973 0.479718 19.2104Z" fill="#FE621D"/>
<path fill-rule="evenodd" clip-rule="evenodd" d="M6.27172 36.969C4.99723 36.1385 4.61279 34.3932 5.41305 33.0706L17.675 12.806C18.4752 11.4835 20.1572 11.0845 21.4316 11.915C22.7061 12.7454 23.0906 14.4908 22.2903 15.8133L10.0284 36.0779C9.22812 37.4005 7.54621 37.7994 6.27172 36.969Z" fill="#FE621D"/>
<path fill-rule="evenodd" clip-rule="evenodd" d="M9.19431 32.1957C10.4602 33.0402 10.8267 34.7897 10.0129 36.1033L5.92561 42.7011C5.11182 44.0147 3.4259 44.395 2.16001 43.5506C0.894115 42.7061 0.527611 40.9566 1.3414 39.643L5.42871 33.0452C6.2425 31.7316 7.92842 31.3512 9.19431 32.1957Z" fill="#FE621D"/>
<path fill-rule="evenodd" clip-rule="evenodd" d="M18.31 38.9884C16.964 38.29 16.4184 36.5915 17.0914 35.1947L20.7246 27.6544C21.3976 26.2576 23.0344 25.6915 24.3804 26.3899C25.7264 27.0883 26.272 28.7867 25.599 30.1835L21.9658 37.7239C21.2928 39.1206 19.656 39.6868 18.31 38.9884Z" fill="#FE621D"/>
<path fill-rule="evenodd" clip-rule="evenodd" d="M25.8742 29.187C25.7315 30.7416 24.4014 31.8819 22.9033 31.7338L13.3662 30.7913C11.8681 30.6432 10.7693 29.2629 10.912 27.7083C11.0546 26.1537 12.3848 25.0134 13.8829 25.1615L23.42 26.104C24.9181 26.2521 26.0169 27.6324 25.8742 29.187Z" fill="#FE621D"/>
<path fill-rule="evenodd" clip-rule="evenodd" d="M7.26657 12.4245C7.26657 10.8629 8.48654 9.59689 9.99145 9.5969H18.1661C19.671 9.5969 20.8909 10.8629 20.8909 12.4245C20.8909 13.9862 19.671 15.2521 18.1661 15.2521L9.99145 15.2521C8.48654 15.2521 7.26657 13.9862 7.26657 12.4245Z" fill="#FE621D"/>
<path fill-rule="evenodd" clip-rule="evenodd" d="M13.5509 30.0908C11.1714 29.2678 9.88548 26.5989 10.6786 24.1297L14.3118 12.8192C15.105 10.35 17.6769 9.01557 20.0563 9.83863C22.4358 10.6617 23.7218 13.3306 22.9286 15.7998L19.2954 27.1103C18.5023 29.5795 15.9304 30.9139 13.5509 30.0908Z" fill="#FE621D"/>
<path fill-rule="evenodd" clip-rule="evenodd" d="M21.3451 21.3788C21.3451 19.8172 22.5651 18.5512 24.07 18.5512H29.9739C31.4788 18.5512 32.6988 19.8172 32.6988 21.3788C32.6988 22.9405 31.4788 24.2064 29.9739 24.2064H24.07C22.5651 24.2064 21.3451 22.9405 21.3451 21.3788Z" fill="#FE621D"/>
<path fill-rule="evenodd" clip-rule="evenodd" d="M29.7469 21.3788C29.7469 20.7281 30.2552 20.2006 30.8822 20.2006H50.8646C51.4917 20.2006 52 20.7281 52 21.3788C52 22.0295 51.4917 22.557 50.8646 22.557H30.8822C30.2552 22.557 29.7469 22.0295 29.7469 21.3788Z" fill="#FE621D"/>
<path fill-rule="evenodd" clip-rule="evenodd" d="M20.684 3.44155C20.5217 2.81303 18.1877 2.73787 18.7933 2.56946L27.8473 0.0404377C28.453 -0.127973 29.0755 0.245017 29.2378 0.873534C29.4001 1.50205 29.0407 2.14809 28.435 2.3165L20.0538 4.74954C19.4482 4.91795 20.8463 4.07007 20.684 3.44155Z" fill="#FE621D"/>
<path fill-rule="evenodd" clip-rule="evenodd" d="M25.2886 23.9078C23.9426 24.6062 22.3059 24.04 21.6328 22.6432L17.9997 15.1029C17.3267 13.7061 17.8722 12.0077 19.2183 11.3093C20.5643 10.6109 22.2011 11.177 22.8741 12.5738L26.5072 20.1141C27.1803 21.5109 26.6347 23.2094 25.2886 23.9078Z" fill="#FE621D"/>
</svg>
