<svg width="48" height="48" viewBox="0 0 48 48" fill="none" xmlns="http://www.w3.org/2000/svg">
<path d="M33.2996 25.7284C34.2335 24.7738 34.2335 23.2262 33.2996 22.2716C32.3658 21.317 30.8518 21.317 29.9179 22.2716L14.7004 37.8273C13.7665 38.7818 13.7665 40.3295 14.7004 41.2841C15.6342 42.2386 17.1482 42.2386 18.0821 41.2841L33.2996 25.7284Z" fill="black"/>
<path d="M33.2996 25.7284C34.2335 24.7738 34.2335 23.2262 33.2996 22.2716L18.0821 6.71593C17.1482 5.76136 15.6342 5.76136 14.7004 6.71593C13.7665 7.6705 13.7665 9.21817 14.7004 10.1727L29.9179 25.7284C30.8518 26.683 32.3658 26.683 33.2996 25.7284Z" fill="black"/>
</svg>
