<svg width="48" height="48" viewBox="0 0 48 48" fill="none" xmlns="http://www.w3.org/2000/svg">
<path d="M14.7004 25.7284C13.7665 24.7738 13.7665 23.2262 14.7004 22.2716C15.6342 21.317 17.1482 21.317 18.0821 22.2716L33.2996 37.8273C34.2335 38.7818 34.2335 40.3295 33.2996 41.2841C32.3658 42.2386 30.8518 42.2386 29.9179 41.2841L14.7004 25.7284Z" fill="black"/>
<path d="M14.7004 25.7284C13.7665 24.7738 13.7665 23.2262 14.7004 22.2716L29.9179 6.71593C30.8518 5.76136 32.3658 5.76136 33.2996 6.71593C34.2335 7.6705 34.2335 9.21817 33.2996 10.1727L18.0821 25.7284C17.1482 26.683 15.6342 26.683 14.7004 25.7284Z" fill="black"/>
</svg>
